<?xml version="1.0" encoding="UTF-8" standalone="no"?>
<!-- Created with Inkscape (http://www.inkscape.org/) -->

<svg
   xmlns:dc="http://purl.org/dc/elements/1.1/"
   xmlns:cc="http://creativecommons.org/ns#"
   xmlns:rdf="http://www.w3.org/1999/02/22-rdf-syntax-ns#"
   xmlns:svg="http://www.w3.org/2000/svg"
   xmlns="http://www.w3.org/2000/svg"
   xmlns:sodipodi="http://sodipodi.sourceforge.net/DTD/sodipodi-0.dtd"
   xmlns:inkscape="http://www.inkscape.org/namespaces/inkscape"
   version="1.1"
   id="svg2"
   width="44.48"
   height="57.599998"
   viewBox="0 0 44.48 57.599998"
   sodipodi:docname="0.svg"
   inkscape:version="0.92.3 (2405546, 2018-03-11)">
  <metadata
     id="metadata8">
    <rdf:RDF>
      <cc:Work
         rdf:about="">
        <dc:format>image/svg+xml</dc:format>
        <dc:type
           rdf:resource="http://purl.org/dc/dcmitype/StillImage" />
        <dc:title></dc:title>
      </cc:Work>
    </rdf:RDF>
  </metadata>
  <defs
     id="defs6" />
  <sodipodi:namedview
     pagecolor="#ffffff"
     bordercolor="#666666"
     borderopacity="1"
     objecttolerance="10"
     gridtolerance="10"
     guidetolerance="10"
     inkscape:pageopacity="0"
     inkscape:pageshadow="2"
     inkscape:window-width="1920"
     inkscape:window-height="1025"
     id="namedview4"
     showgrid="false"
     inkscape:zoom="5.7943474"
     inkscape:cx="1.6194873"
     inkscape:cy="35.705102"
     inkscape:window-x="0"
     inkscape:window-y="27"
     inkscape:window-maximized="1"
     inkscape:current-layer="svg2" />
  <path
     style="fill:#000000;stroke-width:0.31999999"
     d="M 16.48,44.241486 C 15.952,44.194018 14.602692,43.919589 13.481538,43.631643 11.753071,43.18772 11.184296,42.845157 9.741392,41.379016 8.8054662,40.428018 7.8680074,39.116693 7.6581507,38.464962 7.4482941,37.813234 7.11536,37.077864 6.9182966,36.830808 6.0045741,35.685295 6.8336138,26.817228 8.1290317,23.879826 8.371544,23.329921 8.7965766,22.277944 9.0735485,21.542098 10.004293,19.069339 15.02436,12.48 15.977478,12.48 16.165865,12.48 16.32,12.360615 16.32,12.214699 c 0,-0.145914 0.707696,-0.596766 1.572657,-1.001893 1.900022,-0.889922 4.721374,-0.817495 5.788905,0.148607 1.318661,1.193372 2.911496,4.908747 3.107681,7.248834 l 0.184597,2.201872 0.83308,-0.554605 c 1.230967,-0.819489 4.004049,-0.720645 5.726955,0.204134 1.689859,0.907041 2.733383,2.242502 3.389962,4.338351 1.844617,5.888151 -0.36593,11.422173 -6.105274,15.28432 -2.094166,1.409219 -5.460819,3.115679 -6.146875,3.115679 -0.181127,0 -0.946354,0.20697 -1.700505,0.459936 -1.356307,0.454944 -4.633562,0.74856 -6.491183,0.581552 z m 6.296117,-2.176028 c 2.584073,-0.6696 4.970064,-1.797613 7.409726,-3.503059 2.457677,-1.718039 3.770439,-3.201879 4.933991,-5.576986 0.742553,-1.515742 0.871616,-2.177296 0.854473,-4.379938 -0.01725,-2.215586 -0.145545,-2.808427 -0.878483,-4.059088 -1.203712,-2.053976 -2.525939,-2.91731 -4.4926,-2.93339 -0.886282,-0.0072 -1.641912,0.143309 -1.70758,0.340225 -0.06479,0.194273 -0.508809,0.939741 -0.986718,1.656595 -2.38393,3.575851 -4.168713,6.234893 -5.795866,8.634921 -0.986183,1.454605 -1.953093,2.936128 -2.14869,3.292275 -0.195596,0.356147 -0.580198,0.822016 -0.854671,1.035264 -0.603159,0.468615 -2.284692,3.574429 -2.577802,4.761238 -0.136722,0.553588 -0.07043,0.91017 0.188653,1.014736 0.856433,0.345661 4.240082,0.187645 6.055567,-0.282793 z M 14.4,41.550875 c 0,-0.906649 3.11298,-6.524547 4.341835,-7.835567 0.374652,-0.399706 2.999376,-4.324645 4.249983,-6.355309 0.433566,-0.704 1.031465,-1.64 1.328664,-2.08 1.465714,-2.169974 1.572457,-2.632694 1.222967,-5.301455 C 25.146757,16.949332 23.71875,13.789907 22.392078,13.006223 19.978061,11.580228 17.875245,12.734376 13.117276,18.096774 12.53156,18.756896 10.56,22.437811 10.56,22.871224 c 0,0.127629 -0.205772,0.685815 -0.457272,1.240414 -0.9547123,2.105301 -1.842536,6.1777 -1.8592678,8.528361 -0.029002,4.074349 1.5598089,7.241747 4.3172038,8.606633 C 14.119338,42.018165 14.4,42.064587 14.4,41.550875 Z"
     id="path839"
     inkscape:connector-curvature="0" />
</svg>
