<?xml version="1.0" encoding="UTF-8" standalone="no"?>
<!-- Created with Inkscape (http://www.inkscape.org/) -->

<svg
   xmlns:dc="http://purl.org/dc/elements/1.1/"
   xmlns:cc="http://creativecommons.org/ns#"
   xmlns:rdf="http://www.w3.org/1999/02/22-rdf-syntax-ns#"
   xmlns:svg="http://www.w3.org/2000/svg"
   xmlns="http://www.w3.org/2000/svg"
   xmlns:sodipodi="http://sodipodi.sourceforge.net/DTD/sodipodi-0.dtd"
   xmlns:inkscape="http://www.inkscape.org/namespaces/inkscape"
   version="1.1"
   id="svg2"
   width="35.84"
   height="58.240002"
   viewBox="0 0 35.84 58.240002"
   sodipodi:docname="1.svg"
   inkscape:version="0.92.3 (2405546, 2018-03-11)">
  <metadata
     id="metadata8">
    <rdf:RDF>
      <cc:Work
         rdf:about="">
        <dc:format>image/svg+xml</dc:format>
        <dc:type
           rdf:resource="http://purl.org/dc/dcmitype/StillImage" />
        <dc:title></dc:title>
      </cc:Work>
    </rdf:RDF>
  </metadata>
  <defs
     id="defs6" />
  <sodipodi:namedview
     pagecolor="#ffffff"
     bordercolor="#666666"
     borderopacity="1"
     objecttolerance="10"
     gridtolerance="10"
     guidetolerance="10"
     inkscape:pageopacity="0"
     inkscape:pageshadow="2"
     inkscape:window-width="1920"
     inkscape:window-height="1025"
     id="namedview4"
     showgrid="false"
     inkscape:zoom="11.461346"
     inkscape:cx="5.5036435"
     inkscape:cy="31.132172"
     inkscape:window-x="0"
     inkscape:window-y="27"
     inkscape:window-maximized="1"
     inkscape:current-layer="svg2" />
  <path
     style="fill:#000000;stroke-width:0.31999999"
     d="m 23.422201,48.234949 c -0.344141,-0.414666 -0.299368,-5.672317 0.05316,-6.242724 0.103777,-0.167913 0.419418,-2.73264 0.701425,-5.699389 0.282007,-2.966748 0.566602,-5.481238 0.632432,-5.587753 0.06583,-0.106516 0.216872,-1.462472 0.335648,-3.013235 0.158349,-2.067445 0.119142,-2.759735 -0.14698,-2.595263 -0.199615,0.123369 -1.139006,1.259106 -2.087535,2.523861 -3.98188,5.309376 -6.389964,8.38617 -6.641835,8.486221 C 16.120833,36.165336 16,36.417336 16,36.666667 c 0,0.249334 -0.124736,0.453334 -0.277192,0.453334 -0.152456,0 -0.764456,0.624605 -1.36,1.388013 -4.8203075,6.178976 -8.1310973,9.120583 -9.7942262,8.702077 L 3.68,46.986488 4.64,46.18028 c 2.5749405,-2.162435 4.1993414,-3.847261 7.36,-7.633779 1.846406,-2.212023 6.383136,-7.97085 8.8,-11.17053 1.144,-1.514538 2.692,-3.497109 3.44,-4.405712 0.748431,-0.909127 1.376407,-2.020353 1.396486,-2.471132 0.283595,-6.366729 2.778196,-13.9926743 4.745585,-14.5071578 1.233901,-0.3226727 1.730991,0.4661789 1.691267,2.6839373 -0.05199,2.9024515 -1.22197,6.8370895 -3.005404,10.1071365 -0.466726,0.855775 -0.540826,1.692896 -0.453211,5.12 0.154312,6.035931 -0.853259,14.234325 -2.553709,20.779 -0.447536,1.722474 -0.967979,3.317661 -1.15654,3.544864 -0.435564,0.524823 -1.050614,0.52816 -1.482273,0.008 z M 29.046652,13.92 c 0.375045,-1.232 0.763597,-2.739107 0.863449,-3.349128 0.169532,-1.0357072 0.150063,-1.0674822 -0.294098,-0.48 -0.261607,0.346021 -0.480229,0.859005 -0.485826,1.139964 -0.0056,0.28096 -0.215021,0.92896 -0.465385,1.44 -0.544643,1.111717 -1.044072,4.283408 -0.599809,3.809165 0.164874,-0.176 0.606625,-1.328 0.981669,-2.560001 z"
     id="path817"
     inkscape:connector-curvature="0" />
</svg>
