<?xml version="1.0" encoding="UTF-8" standalone="no"?>
<!-- Created with Inkscape (http://www.inkscape.org/) -->

<svg
   xmlns:dc="http://purl.org/dc/elements/1.1/"
   xmlns:cc="http://creativecommons.org/ns#"
   xmlns:rdf="http://www.w3.org/1999/02/22-rdf-syntax-ns#"
   xmlns:svg="http://www.w3.org/2000/svg"
   xmlns="http://www.w3.org/2000/svg"
   xmlns:sodipodi="http://sodipodi.sourceforge.net/DTD/sodipodi-0.dtd"
   xmlns:inkscape="http://www.inkscape.org/namespaces/inkscape"
   version="1.1"
   id="svg2"
   width="28.48"
   height="55.68"
   viewBox="0 0 28.48 55.68"
   sodipodi:docname="2.svg"
   inkscape:version="0.92.3 (2405546, 2018-03-11)">
  <metadata
     id="metadata8">
    <rdf:RDF>
      <cc:Work
         rdf:about="">
        <dc:format>image/svg+xml</dc:format>
        <dc:type
           rdf:resource="http://purl.org/dc/dcmitype/StillImage" />
        <dc:title></dc:title>
      </cc:Work>
    </rdf:RDF>
  </metadata>
  <defs
     id="defs6" />
  <sodipodi:namedview
     pagecolor="#ffffff"
     bordercolor="#666666"
     borderopacity="1"
     objecttolerance="10"
     gridtolerance="10"
     guidetolerance="10"
     inkscape:pageopacity="0"
     inkscape:pageshadow="2"
     inkscape:window-width="1920"
     inkscape:window-height="1025"
     id="namedview4"
     showgrid="false"
     inkscape:zoom="5.9941523"
     inkscape:cx="13.382211"
     inkscape:cy="17.543361"
     inkscape:window-x="0"
     inkscape:window-y="27"
     inkscape:window-maximized="1"
     inkscape:current-layer="svg2" />
  <path
     style="fill:#000000;stroke-width:0.31999999"
     d="m 2.507246,50.02768 c -1.0648741,-0.288054 -0.9538064,-1.117958 0.2874328,-2.147718 1.8850057,-1.563844 6.215127,-6.009258 7.3821472,-7.578708 0.962062,-1.293811 3.460096,-5.085692 6.0152,-9.13075 0.545614,-0.863777 1.337614,-2.2181 1.76,-3.009608 0.422386,-0.791507 0.839974,-1.511507 0.927974,-1.6 0.256166,-0.257601 1.445815,-2.473118 3.205086,-5.968921 1.086313,-2.158585 1.802526,-4.100518 2.135298,-5.789622 l 0.500722,-2.541596 -0.848693,-1.890378 C 22.193202,6.6301046 18.001236,5.3023178 13.005572,6.9283546 c -1.355444,0.441183 -1.63572,0.6897248 -2.189467,1.9415606 -0.709059,1.6029458 -0.591439,3.1668118 0.342908,4.5592808 0.299228,0.445942 0.754861,1.231033 1.012519,1.744646 C 12.429189,15.687456 13.36,16.675361 14.24,17.369188 16.365419,19.044953 17.347603,20.8 16.16,20.8 c -0.264,0 -0.48,-0.108247 -0.48,-0.240549 0,-0.132303 -0.638472,-0.579258 -1.418826,-0.993236 C 12.542005,18.654199 11.130005,16.7026 10.196303,15.249867 9.262601,13.797134 9.0501704,13.284269 8.9509302,12.616145 8.85169,11.948021 8.64,11.155085 8.64,10.36889 c 0,-3.4255396 1.943825,-5.2793249 6.162966,-5.8774926 2.690921,-0.3815043 3.223681,-0.3545715 5.582484,0.2822151 2.23765,0.6040797 4.696123,2.9201248 5.258113,4.9534925 0.456043,1.650036 0.554269,4.412489 0.221176,6.220253 C 25.067603,20.273573 14.10197,38.535021 8.3683379,45.084717 6.8824131,46.782134 6.7485478,47.04 7.3532995,47.04 c 0.6128944,0 4.8822455,-0.706797 9.3420985,-1.546595 1.671941,-0.314829 2.301597,-0.09284 2.136088,0.753101 -0.126537,0.646745 -1.688679,1.269305 -3.956804,1.576899 -0.84481,0.114573 -1.791751,0.345174 -2.104313,0.512454 C 12.457807,48.503136 11.778712,48.64 11.26127,48.64 10.743827,48.64 9.7623603,48.835517 9.0802326,49.074483 8.3981046,49.31345 7.12,49.606906 6.24,49.726605 5.36,49.846304 4.28,49.99544 3.84,50.058016 3.4,50.120592 2.8002607,50.106941 2.507246,50.02768 Z"
     id="path817"
     inkscape:connector-curvature="0"
     sodipodi:nodetypes="cscssssscsssccsssczzsssssssscccscssc" />
</svg>
