<?xml version="1.0" encoding="UTF-8" standalone="no"?>
<!-- Created with Inkscape (http://www.inkscape.org/) -->

<svg
   xmlns:dc="http://purl.org/dc/elements/1.1/"
   xmlns:cc="http://creativecommons.org/ns#"
   xmlns:rdf="http://www.w3.org/1999/02/22-rdf-syntax-ns#"
   xmlns:svg="http://www.w3.org/2000/svg"
   xmlns="http://www.w3.org/2000/svg"
   xmlns:sodipodi="http://sodipodi.sourceforge.net/DTD/sodipodi-0.dtd"
   xmlns:inkscape="http://www.inkscape.org/namespaces/inkscape"
   version="1.1"
   id="svg2"
   width="36.799999"
   height="54.720001"
   viewBox="0 0 36.799999 54.720001"
   sodipodi:docname="3.svg"
   inkscape:version="0.92.3 (2405546, 2018-03-11)">
  <metadata
     id="metadata8">
    <rdf:RDF>
      <cc:Work
         rdf:about="">
        <dc:format>image/svg+xml</dc:format>
        <dc:type
           rdf:resource="http://purl.org/dc/dcmitype/StillImage" />
        <dc:title></dc:title>
      </cc:Work>
    </rdf:RDF>
  </metadata>
  <defs
     id="defs6" />
  <sodipodi:namedview
     pagecolor="#ffffff"
     bordercolor="#666666"
     borderopacity="1"
     objecttolerance="10"
     gridtolerance="10"
     guidetolerance="10"
     inkscape:pageopacity="0"
     inkscape:pageshadow="2"
     inkscape:window-width="1920"
     inkscape:window-height="1025"
     id="namedview4"
     showgrid="false"
     inkscape:zoom="4.3128654"
     inkscape:cx="18.4"
     inkscape:cy="27.360001"
     inkscape:window-x="0"
     inkscape:window-y="27"
     inkscape:window-maximized="1"
     inkscape:current-layer="svg2" />
  <path
     style="fill:#000000;stroke-width:0.31999999"
     d="m 9.9199997,50.319761 c -0.44,-0.07007 -1.5919999,-0.349664 -2.5599999,-0.621312 -3.0078754,-0.844096 -5.862467,-4.451642 -5.2989921,-6.696704 0.2684136,-1.069447 1.2642133,-0.895437 1.3966837,0.244061 0.141608,1.218099 2.1051475,3.349843 3.8418108,4.170918 1.3188208,0.623523 2.0235532,0.709363 5.8204978,0.708947 8.978235,-9.6e-4 16.683767,-3.21727 17.273716,-7.210057 C 30.71334,38.752394 29.940703,37.514557 27.307507,35.97122 22.595996,33.209767 18.876146,32.187105 11.04,31.49896 8.5703594,31.282083 8.3199998,31.185462 8.3199998,30.449226 c 0,-0.768992 0.4657913,-1.13932 2.0800002,-1.653704 1.609656,-0.512934 6.341126,-2.984032 7.891727,-4.121601 0.644449,-0.472788 2.03407,-1.663596 3.088045,-2.646241 1.053975,-0.982644 2.182698,-1.984863 2.508273,-2.227153 0.836435,-0.622467 3.631954,-3.997528 3.631954,-4.384898 0,-0.177262 0.162264,-0.376383 0.360587,-0.442491 0.198322,-0.06611 0.422297,-0.834107 0.49772,-1.706667 0.191804,-2.21892 -0.575251,-3.5762919 -2.60674,-4.6128596 -1.401491,-0.7151111 -1.985231,-0.8106813 -4.96,-0.8120548 -4.574491,-0.00211 -6.799298,0.52677 -9.185857,2.1836644 C 9.1143294,11.768773 9.2628625,15.04 11.85341,15.04 c 1.427992,0 2.91049,0.655 2.799772,1.237 -0.07394,0.388656 -0.579156,0.565715 -1.966805,0.689288 -3.3299779,0.29654 -4.8938223,-0.990708 -4.5938201,-3.781313 0.379799,-3.5328699 1.9535561,-5.1277534 6.4652771,-6.552068 3.295303,-1.0403011 9.238706,-1.0277923 11.522165,0.02425 2.985762,1.375609 4.32,3.1740023 4.32,5.822843 0,2.647916 -1.23792,4.537851 -6.026062,9.2 -1.671996,1.628 -3.124131,2.962301 -3.226965,2.965112 -0.102835,0.0028 -0.65689,0.419448 -1.231234,0.925861 -0.574344,0.506412 -2.050344,1.528633 -3.28,2.271603 -2.358967,1.425308 -2.734089,1.917425 -1.461584,1.917425 0.425785,0 1.648874,0.224092 2.717974,0.497983 1.069101,0.273891 2.196732,0.548399 2.505846,0.610017 0.521447,0.103945 4.316119,1.489868 6.722025,2.455081 0.572,0.229475 1.04,0.525962 1.04,0.658858 0,0.132893 0.396,0.447584 0.88,0.699309 2.240327,1.165177 3.280797,2.944995 3.278362,5.607917 -0.0035,3.858825 -3.073428,6.527148 -9.918362,8.620944 -3.537734,1.082157 -9.97256,1.808989 -12.4799993,1.409651 z"
     id="path12"
     inkscape:connector-curvature="0" />
</svg>
