<?xml version="1.0" encoding="UTF-8" standalone="no"?>
<!-- Created with Inkscape (http://www.inkscape.org/) -->

<svg
   xmlns:dc="http://purl.org/dc/elements/1.1/"
   xmlns:cc="http://creativecommons.org/ns#"
   xmlns:rdf="http://www.w3.org/1999/02/22-rdf-syntax-ns#"
   xmlns:svg="http://www.w3.org/2000/svg"
   xmlns="http://www.w3.org/2000/svg"
   xmlns:sodipodi="http://sodipodi.sourceforge.net/DTD/sodipodi-0.dtd"
   xmlns:inkscape="http://www.inkscape.org/namespaces/inkscape"
   version="1.1"
   id="svg2"
   width="43.52"
   height="76.800003"
   viewBox="0 0 43.52 76.800003"
   sodipodi:docname="4.svg"
   inkscape:version="0.92.3 (2405546, 2018-03-11)">
  <metadata
     id="metadata8">
    <rdf:RDF>
      <cc:Work
         rdf:about="">
        <dc:format>image/svg+xml</dc:format>
        <dc:type
           rdf:resource="http://purl.org/dc/dcmitype/StillImage" />
        <dc:title></dc:title>
      </cc:Work>
    </rdf:RDF>
  </metadata>
  <defs
     id="defs6" />
  <sodipodi:namedview
     pagecolor="#ffffff"
     bordercolor="#666666"
     borderopacity="1"
     objecttolerance="10"
     gridtolerance="10"
     guidetolerance="10"
     inkscape:pageopacity="0"
     inkscape:pageshadow="2"
     inkscape:window-width="1920"
     inkscape:window-height="1025"
     id="namedview4"
     showgrid="false"
     inkscape:zoom="3.0729165"
     inkscape:cx="21.76"
     inkscape:cy="38.400002"
     inkscape:window-x="0"
     inkscape:window-y="27"
     inkscape:window-maximized="1"
     inkscape:current-layer="svg2" />
  <path
     style="fill:#000000;stroke-width:0.31999999"
     d="m 21.345905,72.080003 c -0.298725,-0.543687 -0.231864,-8.75265 0.08683,-10.660449 0.936762,-5.607782 2.117889,-11.189331 3.645431,-17.226883 1.073531,-4.243095 1.073281,-4.268241 -0.03816,-3.829258 -1.658416,0.655024 -4.400395,1.213795 -6.012195,1.22519 -2.479601,0.01754 -4.18352,-1.003104 -5.857502,-3.508602 -0.764334,-1.144 -1.515587,-2.126416 -1.669451,-2.183148 -0.153864,-0.05673 -0.745176,0.447267 -1.314027,1.12 -2.2703015,2.684896 -6.3378615,6.503149 -6.9277636,6.503149 -1.0466882,0 -1.4452605,-0.816016 -1.2409924,-2.54074 0.4769359,-4.026979 3.7283444,-7.427405 7.581931,-7.92943 0.616,-0.08025 1.408,-0.329652 1.76,-0.554228 0.864677,-0.551667 4.600907,-7.962506 5.65443,-11.215603 C 17.826471,18.77256 18.495028,9.8781249 18.042908,7.597208 17.839932,6.5732095 17.28,6.7302198 17.28,7.8111344 17.28,8.8020807 16.646054,10.56 16.288696,10.56 16.129913,10.56 16,9.4292954 16,8.0473229 c 0,-2.0862814 0.124048,-2.6971937 0.730996,-3.6000002 1.00612,-1.4965576 1.931603,-1.579222 2.503436,-0.2236073 0.332152,0.7874147 0.440352,2.6446343 0.425076,7.2962846 -0.02402,7.314529 -0.363217,9.076707 -2.895002,15.040001 -0.53471,1.259438 -0.629182,1.44522 -1.868251,3.673964 -0.48739,0.876681 -1.158435,1.9401 -1.49121,2.363156 C 13.07227,33.020174 12.8,33.486603 12.8,33.633624 c 0,0.147021 0.72671,1.338377 1.614911,2.647459 1.980881,2.919536 3.08602,3.554823 5.761833,3.312189 2.392409,-0.216934 6.341748,-1.472515 6.676514,-2.122608 0.144632,-0.280864 0.728412,-2.094663 1.29729,-4.030663 0.568878,-1.936 1.149648,-3.664 1.2906,-3.84 0.140952,-0.176 0.427305,-0.968 0.63634,-1.76 0.209035,-0.792 0.571291,-1.872 0.805014,-2.4 0.233723,-0.528 0.935841,-2.278564 1.560263,-3.890142 1.766694,-4.559686 4.910365,-8.491494 6.348208,-7.939742 0.660809,0.253577 0.850205,1.196881 1.094867,5.453094 0.372778,6.485023 -1.49264,11.673044 -5.577645,15.512317 -2.57332,2.418521 -3.351493,3.028147 -4.872253,3.816953 -1.47267,0.763866 -1.301058,0.245252 -4.291018,12.967521 C 23.33156,59.075858 22.81202,62.898198 22.9158,67.760003 l 0.09734,4.56 h -0.767683 c -0.422226,0 -0.827023,-0.108 -0.899549,-0.24 z M 6.643968,38.232024 c 2.2356083,-2.324359 2.6965648,-3.032023 1.9749949,-3.032023 -1.1363591,0 -3.1014775,1.828845 -3.9542125,3.680001 -0.3242976,0.704 -0.651032,1.388 -0.7260765,1.52 -0.075045,0.132 -0.01816,0.24 0.1264087,0.24 0.1445692,0 1.3050678,-1.083591 2.5788854,-2.407978 z m 26.2208,-4.457056 c 3.745901,-3.399252 5.69008,-8.030596 5.581056,-13.294967 -0.06903,-3.333205 -0.160595,-3.931591 -0.625344,-4.086507 -0.376234,-0.125411 -2.753469,3.303949 -3.132179,4.518432 -0.11801,0.378441 -0.325693,0.760255 -0.46152,0.848475 -0.554327,0.360034 -4.876227,13.384944 -4.64302,13.992672 0.229108,0.597047 0.867138,0.212381 3.281007,-1.978105 z"
     id="path12"
     inkscape:connector-curvature="0" />
</svg>
