<?xml version="1.0" encoding="UTF-8" standalone="no"?>
<!-- Created with Inkscape (http://www.inkscape.org/) -->

<svg
   xmlns:dc="http://purl.org/dc/elements/1.1/"
   xmlns:cc="http://creativecommons.org/ns#"
   xmlns:rdf="http://www.w3.org/1999/02/22-rdf-syntax-ns#"
   xmlns:svg="http://www.w3.org/2000/svg"
   xmlns="http://www.w3.org/2000/svg"
   xmlns:sodipodi="http://sodipodi.sourceforge.net/DTD/sodipodi-0.dtd"
   xmlns:inkscape="http://www.inkscape.org/namespaces/inkscape"
   version="1.1"
   id="svg2"
   width="40.959999"
   height="50.560001"
   viewBox="0 0 40.959999 50.560001"
   sodipodi:docname="5.svg"
   inkscape:version="0.92.3 (2405546, 2018-03-11)">
  <metadata
     id="metadata8">
    <rdf:RDF>
      <cc:Work
         rdf:about="">
        <dc:format>image/svg+xml</dc:format>
        <dc:type
           rdf:resource="http://purl.org/dc/dcmitype/StillImage" />
        <dc:title></dc:title>
      </cc:Work>
    </rdf:RDF>
  </metadata>
  <defs
     id="defs6" />
  <sodipodi:namedview
     pagecolor="#ffffff"
     bordercolor="#666666"
     borderopacity="1"
     objecttolerance="10"
     gridtolerance="10"
     guidetolerance="10"
     inkscape:pageopacity="0"
     inkscape:pageshadow="2"
     inkscape:window-width="1920"
     inkscape:window-height="1025"
     id="namedview4"
     showgrid="false"
     inkscape:zoom="4.6677214"
     inkscape:cx="20.48"
     inkscape:cy="25.280001"
     inkscape:window-x="0"
     inkscape:window-y="27"
     inkscape:window-maximized="1"
     inkscape:current-layer="svg2" />
  <path
     style="fill:#000000;stroke-width:0.31999999"
     d="M 23.384184,40.154087 C 18.584968,39.420807 13.726826,37.391943 11.867266,35.344372 9.9634078,33.248023 9.23353,31.30559 9.1776596,28.186488 c -0.053731,-2.999656 0.2425127,-4.619763 0.810145,-4.430552 0.2355604,0.07852 0.3798964,1.245089 0.4086364,3.302732 0.04847,3.470182 0.482124,4.737232 2.319218,6.776309 1.997953,2.217619 8.461203,4.445091 13.874608,4.781699 3.62736,0.225549 5.755265,-0.03564 6.731665,-0.826282 l 0.709514,-0.574531 -0.724109,-1.171629 c -1.150426,-1.86143 -2.723724,-3.618509 -4.728257,-5.280575 -1.615454,-1.339462 -5.329407,-3.883658 -5.669264,-3.883658 -0.06477,0 -1.609969,-0.695824 -3.433786,-1.546276 C 17.652213,24.483273 14.288,22.942735 12,21.910307 5.6015442,19.023093 3.6051385,17.247902 4.5137925,15.253624 5.0045359,14.176559 5.1253448,14.126383 14.4,11.147514 l 4.32,-1.3875138 -5.92,-0.16 -5.9200002,-0.16 v -0.96 -0.9600001 h 7.3910732 c 8.347751,0 8.448926,0.026034 8.448926,2.1740359 0,1.111657 0.195742,1.481031 1.378244,2.600818 0.758034,0.71783 2.632208,1.953146 4.16483,2.745146 1.829833,0.945587 2.756199,1.603543 2.698082,1.916325 -0.167434,0.901112 -1.242381,0.693638 -4.286751,-0.827378 -2.803278,-1.400563 -3.859336,-2.21777 -5.452822,-4.219545 L 20.639999,11.178805 18.4,11.837809 c -1.232,0.362452 -2.672,0.808663 -3.2,0.991579 -0.528,0.182916 -1.68,0.528842 -2.56,0.768724 -2.521874,0.687444 -6.0706565,2.303726 -6.1751656,2.812459 -0.1257859,0.612306 2.1473935,2.042562 6.4951656,4.086678 12.974111,6.099809 14.181111,6.776951 17.412461,9.768611 2.393468,2.215929 5.147538,5.995533 5.147538,7.064326 0,0.779549 -0.681133,1.622669 -2.019203,2.499405 -1.119392,0.733453 -6.343363,0.901015 -10.116612,0.324496 z"
     id="path12"
     inkscape:connector-curvature="0" />
</svg>
