<?xml version="1.0" encoding="UTF-8" standalone="no"?>
<!-- Created with Inkscape (http://www.inkscape.org/) -->

<svg
   xmlns:dc="http://purl.org/dc/elements/1.1/"
   xmlns:cc="http://creativecommons.org/ns#"
   xmlns:rdf="http://www.w3.org/1999/02/22-rdf-syntax-ns#"
   xmlns:svg="http://www.w3.org/2000/svg"
   xmlns="http://www.w3.org/2000/svg"
   xmlns:sodipodi="http://sodipodi.sourceforge.net/DTD/sodipodi-0.dtd"
   xmlns:inkscape="http://www.inkscape.org/namespaces/inkscape"
   version="1.1"
   id="svg2"
   width="31.040001"
   height="45.439999"
   viewBox="0 0 31.040001 45.439999"
   sodipodi:docname="6.svg"
   inkscape:version="0.92.3 (2405546, 2018-03-11)">
  <metadata
     id="metadata8">
    <rdf:RDF>
      <cc:Work
         rdf:about="">
        <dc:format>image/svg+xml</dc:format>
        <dc:type
           rdf:resource="http://purl.org/dc/dcmitype/StillImage" />
        <dc:title></dc:title>
      </cc:Work>
    </rdf:RDF>
  </metadata>
  <defs
     id="defs6" />
  <sodipodi:namedview
     pagecolor="#ffffff"
     bordercolor="#666666"
     borderopacity="1"
     objecttolerance="10"
     gridtolerance="10"
     guidetolerance="10"
     inkscape:pageopacity="0"
     inkscape:pageshadow="2"
     inkscape:window-width="1920"
     inkscape:window-height="1025"
     id="namedview4"
     showgrid="false"
     inkscape:zoom="5.1936621"
     inkscape:cx="15.52"
     inkscape:cy="22.719999"
     inkscape:window-x="0"
     inkscape:window-y="27"
     inkscape:window-maximized="1"
     inkscape:current-layer="svg2" />
  <path
     style="fill:#000000;stroke-width:0.31999999"
     d="M 12.96,39.054978 C 9.5062323,38.124162 7.1431516,36.115906 6.0683637,33.198143 5.4713263,31.577345 5.3377451,30.595685 5.3610168,27.999999 5.4028357,23.335631 6.9120095,16.857234 8.7042755,13.648465 12.364363,7.0956574 18.320803,2.4517846 21.748437,3.4787286 23.782237,4.08807 25.822717,7.8420341 25.408924,10.213097 25.19048,11.464802 24.015957,14.08 23.672242,14.08 c -0.117873,0 -0.557216,0.297396 -0.976318,0.660881 -0.474341,0.411394 -0.807449,0.52454 -0.88239,0.29972 -0.06621,-0.198639 0.09644,-0.532036 0.361462,-0.740881 0.265017,-0.208846 0.805275,-1.284988 1.200572,-2.391426 0.613368,-1.716817 0.665951,-2.1878408 0.35872,-3.2132881 C 23.235561,7.0304053 21.707424,5.6306796 20.395689,5.6369541 17.771156,5.6495084 14.27985,8.4128472 11.345628,12.8 7.6978156,18.25409 5.941798,28.868321 7.9879923,33.095193 c 0.74676,1.542601 2.8345417,3.384806 3.8360207,3.384806 0.290393,0 0.697074,0.169085 0.903735,0.375747 0.223024,0.223024 1.387102,0.376176 2.864,0.376804 2.044919,9.6e-4 2.773325,-0.145437 4.088253,-0.821159 2.068167,-1.0628 2.743351,-1.839635 3.06133,-3.522214 0.300663,-1.590956 -0.113819,-3.359368 -1.198958,-5.115419 -1.03195,-1.669975 -1.758236,-1.970216 -4.239161,-1.752439 C 13.703939,26.337266 10.88,27.56512 10.88,28.814145 c 0,0.305224 -0.271495,0.890235 -0.603323,1.300025 -0.5172322,0.638755 -0.6770495,0.683885 -1.1199996,0.316268 -0.2841725,-0.235842 -0.5166771,-0.893814 -0.5166771,-1.462161 0,-3.620128 9.2606957,-6.621581 12.9572247,-4.199522 0.919188,0.602275 2.268576,3.389169 2.771086,5.72313 0.709091,3.293445 -1.079175,6.491865 -4.52831,8.099148 -1.537743,0.716582 -5.061027,0.954173 -6.880001,0.463945 z"
     id="path12"
     inkscape:connector-curvature="0" />
</svg>
