<?xml version="1.0" encoding="UTF-8" standalone="no"?>
<!-- Created with Inkscape (http://www.inkscape.org/) -->

<svg
   xmlns:dc="http://purl.org/dc/elements/1.1/"
   xmlns:cc="http://creativecommons.org/ns#"
   xmlns:rdf="http://www.w3.org/1999/02/22-rdf-syntax-ns#"
   xmlns:svg="http://www.w3.org/2000/svg"
   xmlns="http://www.w3.org/2000/svg"
   xmlns:sodipodi="http://sodipodi.sourceforge.net/DTD/sodipodi-0.dtd"
   xmlns:inkscape="http://www.inkscape.org/namespaces/inkscape"
   version="1.1"
   id="svg2"
   width="25.92"
   height="50.240002"
   viewBox="0 0 25.92 50.240002"
   sodipodi:docname="7.svg"
   inkscape:version="0.92.3 (2405546, 2018-03-11)">
  <metadata
     id="metadata8">
    <rdf:RDF>
      <cc:Work
         rdf:about="">
        <dc:format>image/svg+xml</dc:format>
        <dc:type
           rdf:resource="http://purl.org/dc/dcmitype/StillImage" />
        <dc:title></dc:title>
      </cc:Work>
    </rdf:RDF>
  </metadata>
  <defs
     id="defs6" />
  <sodipodi:namedview
     pagecolor="#ffffff"
     bordercolor="#666666"
     borderopacity="1"
     objecttolerance="10"
     gridtolerance="10"
     guidetolerance="10"
     inkscape:pageopacity="0"
     inkscape:pageshadow="2"
     inkscape:window-width="1587"
     inkscape:window-height="958"
     id="namedview4"
     showgrid="false"
     inkscape:zoom="4.6974521"
     inkscape:cx="12.96"
     inkscape:cy="25.120001"
     inkscape:window-x="180"
     inkscape:window-y="55"
     inkscape:window-maximized="0"
     inkscape:current-layer="svg2" />
  <path
     style="fill:#000000;stroke-width:0.31999999"
     d="m 7.5733334,44.586667 c -0.3425932,-0.342592 -0.2478521,-1.28542 0.2427559,-2.415808 0.2508489,-0.577971 1.1316496,-2.850857 1.9573344,-5.050858 0.8256843,-2.2 1.7698913,-4.571353 2.0982363,-5.269675 0.328344,-0.698321 0.491544,-1.368146 0.362665,-1.488501 C 11.969876,30.114867 6.7844822,31.057446 6.1459824,31.468538 5.6139616,31.811074 4.8,31.148007 4.8,30.372078 c 0,-1.001276 1.6641011,-1.527708 6.56,-2.07523 0.88,-0.09841 1.757868,-0.228452 1.950819,-0.288974 0.719823,-0.225787 5.881785,-11.452031 6.677169,-14.521518 C 20.716759,10.673935 20.642924,6.8991587 19.833524,5.5895228 19.136144,4.4611368 18.746977,4.2370878 17.002946,3.959917 15.813017,3.7708069 12.449935,4.3383778 11.36,4.9122488 11.008,5.0975836 10.542116,5.279094 10.324702,5.3156057 9.673792,5.4249167 7.8822134,6.6235052 7.0574189,7.5014585 6.4254525,8.1741562 6.29896,8.6122535 6.3586966,9.9214289 6.4137213,11.127336 6.319384,11.52 5.9746416,11.52 5.5229731,11.52 4.8376365,10.24106 4.6667558,9.0792896 4.1904032,5.8406969 10.577238,1.9200001 16.329275,1.9200001 c 3.735848,0 5.682689,1.9147969 5.97266,5.8743545 0.09206,1.2571053 0.0023,3.0776454 -0.199516,4.0456454 -0.201796,0.968001 -0.418368,2.048001 -0.481272,2.400001 -0.147259,0.824037 -3.038398,7.611421 -4.566267,10.72 -0.648782,1.32 -1.213529,2.478051 -1.254994,2.573446 -0.04147,0.09539 0.76303,0.119957 1.787767,0.05458 1.243406,-0.07933 1.94415,0.01218 2.106641,0.275099 0.31178,0.504471 -0.693798,1.256872 -1.679797,1.256872 -0.40875,0 -0.993227,0.135302 -1.298839,0.300671 C 16.410046,29.586041 15.8,29.796088 15.36,29.887442 c -0.830009,0.17233 -1.46142,1.261566 -2.894098,4.992559 -0.371706,0.968 -0.868793,2.192 -1.104636,2.72 -1.279739,2.865041 -1.7584596,4.144298 -1.9510634,5.213716 -0.3059277,1.698637 -1.1227677,2.487053 -1.8368692,1.77295 z"
     id="path3715"
     inkscape:connector-curvature="0" />
</svg>
