<?xml version="1.0" encoding="UTF-8" standalone="no"?>
<!-- Created with Inkscape (http://www.inkscape.org/) -->

<svg
   xmlns:dc="http://purl.org/dc/elements/1.1/"
   xmlns:cc="http://creativecommons.org/ns#"
   xmlns:rdf="http://www.w3.org/1999/02/22-rdf-syntax-ns#"
   xmlns:svg="http://www.w3.org/2000/svg"
   xmlns="http://www.w3.org/2000/svg"
   xmlns:sodipodi="http://sodipodi.sourceforge.net/DTD/sodipodi-0.dtd"
   xmlns:inkscape="http://www.inkscape.org/namespaces/inkscape"
   version="1.1"
   id="svg2"
   width="31.040001"
   height="51.200001"
   viewBox="0 0 31.040001 51.200001"
   sodipodi:docname="8.svg"
   inkscape:version="0.92.3 (2405546, 2018-03-11)">
  <metadata
     id="metadata8">
    <rdf:RDF>
      <cc:Work
         rdf:about="">
        <dc:format>image/svg+xml</dc:format>
        <dc:type
           rdf:resource="http://purl.org/dc/dcmitype/StillImage" />
        <dc:title></dc:title>
      </cc:Work>
    </rdf:RDF>
  </metadata>
  <defs
     id="defs6" />
  <sodipodi:namedview
     pagecolor="#ffffff"
     bordercolor="#666666"
     borderopacity="1"
     objecttolerance="10"
     gridtolerance="10"
     guidetolerance="10"
     inkscape:pageopacity="0"
     inkscape:pageshadow="2"
     inkscape:window-width="1073"
     inkscape:window-height="480"
     id="namedview4"
     showgrid="false"
     inkscape:zoom="4.6093749"
     inkscape:cx="15.52"
     inkscape:cy="25.6"
     inkscape:window-x="493"
     inkscape:window-y="365"
     inkscape:window-maximized="0"
     inkscape:current-layer="svg2" />
  <path
     style="fill:#000000;stroke-width:0.32000002"
     d="M 7.7259366,45.882958 C 5.7083551,44.877556 5.2155054,44.18729 5.0106293,42.080001 4.7761378,39.668097 5.3662975,36.443415 6.7938415,32.336385 c 1.5521303,-4.465468 2.661411,-6.730964 4.3283025,-8.83974 2.231275,-2.822774 2.236123,-2.852887 0.744193,-4.622227 C 11.147852,18.022337 10.56,17.23296 10.56,17.120246 c 0,-0.112713 -0.441735,-0.846973 -0.981633,-1.631689 -1.3029827,-1.89382 -2.5383668,-4.733082 -2.5383668,-5.8338845 0,-0.9649043 0.6542397,-2.6081629 1.0400001,-2.6121757 0.132,-0.00138 0.24,-0.2095472 0.24,-0.462609 0,-0.2530618 0.252,-0.465665 0.56,-0.4724512 0.308,-0.00679 1.3849357,-0.105313 2.3931897,-0.2189485 1.31403,-0.1480979 2.292514,-0.056373 3.455097,0.323889 0.892048,0.2917741 2.810755,0.5780694 4.263794,0.6362118 4.372894,0.174978 6.83916,1.6891239 6.347424,3.8969531 -0.281163,1.262383 -1.181284,2.298339 -4.539504,5.224554 -1.496,1.303553 -3.26547,2.900832 -3.932155,3.549509 l -1.212155,1.179413 0.797184,1.587158 c 1.073787,2.137861 3.074973,6.833825 2.912236,6.833825 -0.07184,0 0.06781,0.684 0.31034,1.52 1.148707,3.95967 1.231425,9.114003 0.181425,11.304953 -1.166955,2.434986 -2.189146,3.310516 -4.95388,4.243101 -2.419503,0.816132 -5.1609035,0.699597 -7.1770594,-0.305097 z M 13.12,44.780007 c 0.792,-0.171667 1.656,-0.370377 1.92,-0.441581 0.264,-0.0712 0.587586,-0.140476 0.719079,-0.153942 0.131493,-0.01347 0.80515,-0.535894 1.497016,-1.160954 1.347761,-1.217622 1.948964,-2.978627 1.938892,-5.67928 -0.0053,-1.409449 -1.033298,-6.738819 -1.617331,-8.384249 -0.745997,-2.101739 -3.039716,-6.528728 -3.390531,-6.543887 -0.851834,-0.03681 -4.8940396,6.240418 -4.9039986,7.615525 -0.00173,0.237402 -0.2022429,0.885402 -0.4456077,1.44 -1.8741524,4.270963 -2.6583739,9.497706 -1.7117127,11.408362 0.4300566,0.867987 2.8499895,2.248544 3.901999,2.226064 C 11.386512,45.098401 12.328,44.951674 13.12,44.780007 Z M 20.240001,14.32357 c 1.892,-1.752552 3.44,-3.431615 3.44,-3.731249 0,-0.7824002 -2.593874,-1.9523208 -4.328561,-1.9523208 -1.593539,0 -1.646769,0.1164166 -0.949082,2.0756878 0.280292,0.787126 0.340207,1.389747 0.156445,1.57351 -0.183762,0.183762 -0.383477,0.06286 -0.521478,-0.315688 C 17.914314,11.63608 17.381648,10.805045 16.853623,10.126766 15.987964,9.0147768 15.784273,8.911269 14.781801,9.0739477 13.532494,9.2766824 12.48,8.8536338 12.48,8.1487413 12.48,7.4427371 10.792032,7.5653755 9.8031552,8.3432258 9.3142531,8.7277963 8.9600003,9.3264271 8.9600003,9.7680232 c 0,0.6802278 2.3151257,5.5111598 2.8331947,5.9119768 0.113743,0.088 0.764136,0.987701 1.445317,1.999336 l 1.238512,1.839336 1.161488,-1.004321 c 0.638819,-0.552377 2.709489,-2.438228 4.601489,-4.190781 z"
     id="path12"
     inkscape:connector-curvature="0" />
</svg>
