<?xml version="1.0" encoding="UTF-8" standalone="no"?>
<!-- Created with Inkscape (http://www.inkscape.org/) -->

<svg
   xmlns:dc="http://purl.org/dc/elements/1.1/"
   xmlns:cc="http://creativecommons.org/ns#"
   xmlns:rdf="http://www.w3.org/1999/02/22-rdf-syntax-ns#"
   xmlns:svg="http://www.w3.org/2000/svg"
   xmlns="http://www.w3.org/2000/svg"
   xmlns:sodipodi="http://sodipodi.sourceforge.net/DTD/sodipodi-0.dtd"
   xmlns:inkscape="http://www.inkscape.org/namespaces/inkscape"
   version="1.1"
   id="svg2"
   width="33.279999"
   height="54.400002"
   viewBox="0 0 33.279999 54.400002"
   sodipodi:docname="9.svg"
   inkscape:version="0.92.3 (2405546, 2018-03-11)">
  <metadata
     id="metadata8">
    <rdf:RDF>
      <cc:Work
         rdf:about="">
        <dc:format>image/svg+xml</dc:format>
        <dc:type
           rdf:resource="http://purl.org/dc/dcmitype/StillImage" />
        <dc:title></dc:title>
      </cc:Work>
    </rdf:RDF>
  </metadata>
  <defs
     id="defs6" />
  <sodipodi:namedview
     pagecolor="#ffffff"
     bordercolor="#666666"
     borderopacity="1"
     objecttolerance="10"
     gridtolerance="10"
     guidetolerance="10"
     inkscape:pageopacity="0"
     inkscape:pageshadow="2"
     inkscape:window-width="1073"
     inkscape:window-height="480"
     id="namedview4"
     showgrid="false"
     inkscape:zoom="4.3382352"
     inkscape:cx="16.639999"
     inkscape:cy="27.200001"
     inkscape:window-x="0"
     inkscape:window-y="27"
     inkscape:window-maximized="0"
     inkscape:current-layer="svg2" />
  <path
     style="fill:#000000;stroke-width:0.31999999"
     d="m 17.295387,48.348754 c -0.417415,-0.779949 0.390567,-6.419588 1.28323,-8.956829 0.346743,-0.985559 0.860645,-2.727924 1.142005,-3.871924 0.28136,-1.144 0.639321,-2.2168 0.79547,-2.384 0.734244,-0.786208 0.183977,-0.973856 -2.676029,-0.912553 -2.222863,0.04764 -3.414537,-0.0915 -4.7849,-0.558719 C 10.626672,30.836751 8.6425412,29.604055 7.7511559,28.369466 6.2063109,26.229821 5.4774722,24.965348 5.4709982,24.413588 5.4672968,24.098115 5.4040446,22.400001 5.3304379,20.640001 5.0389896,13.671229 6.8566478,9.7386874 11.336752,7.645215 c 2.387734,-1.115745 6.01561,-1.5506618 7.60919,-0.9122039 4.993045,2.0004327 7.828953,7.2312409 6.455432,11.9069899 -0.12581,0.428283 0.02441,0.56 0.638662,0.56 0.716131,0 0.813828,0.147374 0.901564,1.36 0.152818,2.112142 -0.39017,5.715352 -1.059557,7.031103 -0.333285,0.655106 -1.01712,1.663106 -1.519633,2.24 -1.123671,1.289993 -1.962411,2.885966 -1.962411,3.73412 0,0.350355 -0.127819,0.716003 -0.284043,0.812556 -0.156224,0.09655 -0.603832,1.36505 -0.994684,2.818884 -0.390852,1.453837 -0.849876,2.906131 -1.020054,3.227328 -0.339701,0.641152 -0.581425,2.845533 -0.637761,5.81601 -0.02003,1.056 -0.17713,2.1 -0.349117,2.32 -0.466683,0.596963 -1.447366,0.483069 -1.818953,-0.211248 z m 3.814781,-18.423669 c 0.614019,-0.317521 0.986314,-0.928684 1.400332,-2.298797 0.310174,-1.026458 0.689954,-2.154287 0.843957,-2.506287 0.678377,-1.550553 1.604671,-4.390926 1.595365,-4.892004 -0.0093,-0.499001 -0.05001,-0.495429 -0.455716,0.03996 -0.826521,1.090711 -2.532217,2.132049 -3.492265,2.132049 -1.084684,0 -1.246934,0.258725 1.75614,-2.800342 L 24.407567,17.919317 24.23788,15.919659 C 24.050706,13.713939 23.673256,12.834697 22.068174,10.865492 19.117428,7.2453513 13.556227,7.1993439 9.7026426,10.763194 7.7017982,12.613603 6.9098011,15.570887 7.0232215,20.768041 c 0.059242,2.714574 0.7496461,4.939516 1.8043616,5.814852 0.2488291,0.20651 0.4524166,0.57384 0.4524166,0.81629 0,0.24245 0.204,0.440818 0.4533334,0.440818 0.2493332,0 0.5013329,0.114134 0.5599999,0.25363 0.225783,0.536863 2.622885,1.762747 4.207668,2.151812 1.926696,0.473005 5.400594,0.30462 6.609167,-0.320358 z"
     id="path12"
     inkscape:connector-curvature="0" />
</svg>
