<?xml version="1.0" encoding="UTF-8" standalone="no"?>
<!-- Created with Inkscape (http://www.inkscape.org/) -->

<svg
   xmlns:dc="http://purl.org/dc/elements/1.1/"
   xmlns:cc="http://creativecommons.org/ns#"
   xmlns:rdf="http://www.w3.org/1999/02/22-rdf-syntax-ns#"
   xmlns:svg="http://www.w3.org/2000/svg"
   xmlns="http://www.w3.org/2000/svg"
   xmlns:sodipodi="http://sodipodi.sourceforge.net/DTD/sodipodi-0.dtd"
   xmlns:inkscape="http://www.inkscape.org/namespaces/inkscape"
   version="1.1"
   id="svg2"
   width="34.880001"
   height="52.16"
   viewBox="0 0 34.880001 52.16"
   sodipodi:docname="A.svg"
   inkscape:version="0.92.3 (2405546, 2018-03-11)">
  <metadata
     id="metadata8">
    <rdf:RDF>
      <cc:Work
         rdf:about="">
        <dc:format>image/svg+xml</dc:format>
        <dc:type
           rdf:resource="http://purl.org/dc/dcmitype/StillImage" />
        <dc:title />
      </cc:Work>
    </rdf:RDF>
  </metadata>
  <defs
     id="defs6" />
  <sodipodi:namedview
     pagecolor="#ffffff"
     bordercolor="#666666"
     borderopacity="1"
     objecttolerance="10"
     gridtolerance="10"
     guidetolerance="10"
     inkscape:pageopacity="0"
     inkscape:pageshadow="2"
     inkscape:window-width="1920"
     inkscape:window-height="1025"
     id="namedview4"
     showgrid="false"
     inkscape:zoom="12.797331"
     inkscape:cx="-19.637479"
     inkscape:cy="34.131902"
     inkscape:window-x="0"
     inkscape:window-y="27"
     inkscape:window-maximized="1"
     inkscape:current-layer="svg2" />
  <path
     style="fill:#000000;stroke-width:0.31999999"
     d="m 28.07566,45.76801 c -1.447413,-0.274983 -2.936721,-1.732512 -3.980234,-3.895303 -1.431242,-2.966403 -2.015425,-4.393526 -2.015425,-4.923565 0,-0.575868 0.04203,-0.576176 -1.828817,0.01338 -2.88792,0.910042 -3.457662,1.074416 -6.665419,1.923002 -3.364483,0.890045 -3.350359,0.879306 -4.0994361,3.117261 -0.1036019,0.309523 -0.5627206,0.733334 -1.020264,0.941808 -1.267289,0.577414 -1.4952474,-0.05701 -1.2879841,-3.584576 0.2040781,-3.473341 0.4042049,-4.941213 0.8289361,-6.08 0.2667366,-0.715171 0.7801443,-3.599036 1.9227005,-10.8 0.2024596,-1.276 0.5172776,-2.32 0.6995976,-2.32 0.321719,0 0.233316,2.821127 -0.265731,8.48 -0.108648,1.232 -0.09278,2.139877 0.03527,2.017504 0.128044,-0.122372 0.271499,-0.626372 0.318789,-1.12 0.04729,-0.49364 0.158188,-1.113517 0.24644,-1.377517 0.35765,-1.069884 0.857803,-3.09671 0.987066,-4 0.07556,-0.528 0.291323,-1.752 0.479476,-2.72 0.188154,-0.968 0.423065,-2.750328 0.522025,-3.96073 0.09896,-1.210401 0.233363,-2.290401 0.298673,-2.4 0.06531,-0.109598 0.210331,-1.457524 0.322268,-2.995391 C 13.81283,8.7970058 13.957491,8.32 14.715055,8.32 c 0.994924,0 1.219712,0.6792365 0.953112,2.88 -0.138583,1.144 -0.351301,3.016 -0.472707,4.16 -0.121405,1.144 -0.262969,2.152 -0.314585,2.24 -0.05162,0.088 -0.196574,1.235775 -0.322128,2.550612 -0.125555,1.314837 -0.357666,2.730921 -0.515803,3.146853 -0.158137,0.415933 -0.229351,0.852157 -0.158252,0.969388 0.0711,0.117231 -0.558218,2.949147 -1.398482,6.293147 -0.840263,3.344 -1.423464,6.194739 -1.296002,6.334979 0.215498,0.237098 3.952921,-0.437725 5.769792,-1.041785 0.44,-0.146288 1.633214,-0.436596 2.651585,-0.64513 l 1.851584,-0.379149 -0.137454,-1.174457 C 21.250115,33.008506 20.957853,30.824 20.676245,28.8 20.394636,26.776 19.931218,22.96 19.646427,20.32 19.361636,17.68 19.081192,15.088 19.023219,14.56 18.965245,14.032 18.843927,12.808 18.753624,11.84 18.340804,7.4148234 18.146076,6.148048 17.682045,4.8690061 L 17.184654,3.4980122 16.439291,4.1982445 c -1.283926,1.2061856 -3.22156,4.8074022 -4.15469,7.7217555 -0.493084,1.54 -0.991177,2.8 -1.106874,2.8 -0.306004,0 0.318285,-3.168904 0.882501,-4.479588 0.265269,-0.6162267 0.760143,-1.9103083 1.09972,-2.8757371 C 14.136026,4.5896522 16.556702,1.28 17.610274,1.28 c 1.583215,0 2.369763,2.7398115 3.031578,10.56 0.144415,1.706443 0.387039,4.09819 0.649232,6.4 0.07017,0.616 0.210108,2.344 0.310981,3.84 0.20804,3.085364 1.067755,10.425056 1.323398,11.29833 0.09312,0.318083 0.51698,0.710518 0.94192,0.87208 0.889418,0.338156 0.973799,0.704259 0.292618,1.26959 -0.515332,0.427686 -0.64147,1.598954 -0.225725,2.096 0.139851,0.1672 0.517578,1.115341 0.839392,2.106982 0.321815,0.991642 1.114966,2.418183 1.76256,3.170093 0.962046,1.117021 1.437021,1.401853 2.596411,1.557018 0.955148,0.127833 1.451725,0.360313 1.519182,0.711235 0.113897,0.592518 -1.12054,0.883226 -2.576161,0.606682 z M 10.13193,31.28 c -0.08877,-0.22 -0.1614033,-0.04 -0.1614033,0.4 0,0.44 0.072631,0.62 0.1614033,0.4 0.08877,-0.22 0.08877,-0.58 0,-0.8 z m 0.397065,-11.786667 c -0.07346,-1.074065 0.09812,-2.887708 0.351644,-3.716919 0.176853,-0.578446 0.209588,-0.04511 0.09229,1.503586 -0.169912,2.243278 -0.372724,3.254449 -0.44393,2.213333 z"
     id="path3715"
     inkscape:connector-curvature="0"
     sodipodi:nodetypes="csscsscsssssccscssccssscsscscsccssscsscssscssscscsccsccccsscsccccc" />
</svg>
