<?xml version="1.0" encoding="UTF-8" standalone="no"?>
<!-- Created with Inkscape (http://www.inkscape.org/) -->

<svg
   xmlns:dc="http://purl.org/dc/elements/1.1/"
   xmlns:cc="http://creativecommons.org/ns#"
   xmlns:rdf="http://www.w3.org/1999/02/22-rdf-syntax-ns#"
   xmlns:svg="http://www.w3.org/2000/svg"
   xmlns="http://www.w3.org/2000/svg"
   xmlns:sodipodi="http://sodipodi.sourceforge.net/DTD/sodipodi-0.dtd"
   xmlns:inkscape="http://www.inkscape.org/namespaces/inkscape"
   version="1.1"
   id="svg2"
   width="69.760002"
   height="124.8"
   viewBox="0 0 69.760002 124.8"
   sodipodi:docname="arg.svg"
   inkscape:version="0.92.3 (2405546, 2018-03-11)">
  <metadata
     id="metadata8">
    <rdf:RDF>
      <cc:Work
         rdf:about="">
        <dc:format>image/svg+xml</dc:format>
        <dc:type
           rdf:resource="http://purl.org/dc/dcmitype/StillImage" />
        <dc:title></dc:title>
      </cc:Work>
    </rdf:RDF>
  </metadata>
  <defs
     id="defs6" />
  <sodipodi:namedview
     pagecolor="#ffffff"
     bordercolor="#666666"
     borderopacity="1"
     objecttolerance="10"
     gridtolerance="10"
     guidetolerance="10"
     inkscape:pageopacity="0"
     inkscape:pageshadow="2"
     inkscape:window-width="1920"
     inkscape:window-height="1025"
     id="namedview4"
     showgrid="false"
     inkscape:zoom="5.3486281"
     inkscape:cx="31.714814"
     inkscape:cy="59.919537"
     inkscape:window-x="0"
     inkscape:window-y="27"
     inkscape:window-maximized="1"
     inkscape:current-layer="svg2" />
  <path
     style="fill:#000000;stroke-width:0.31999999"
     d="m 4.4657537,121.25338 c -0.4340921,-0.81111 -0.096417,-1.23936 2.8942465,-3.67063 1.144,-0.93002 2.6559998,-2.21772 3.3599998,-2.86155 0.704,-0.64383 1.913328,-1.69949 2.687396,-2.3459 0.774067,-0.64642 2.142067,-1.82903 3.04,-2.62804 0.897932,-0.79901 2.208605,-1.86834 2.912605,-2.3763 0.704,-0.50795 1.496,-1.11563 1.76,-1.3504 0.607125,-0.5399 8.819224,-6.364003 9.842726,-6.98056 0.292165,-0.176 1.207501,-0.752 2.03408,-1.28 0.82658,-0.528 2.24808,-1.392 3.158896,-1.92 0.910813,-0.528 2.112388,-1.248662 2.670161,-1.601472 0.557776,-0.35281 2.454137,-1.491018 4.214137,-2.52935 1.76,-1.038333 3.704,-2.211076 4.32,-2.60609 0.616,-0.395018 2.416,-1.521158 4,-2.502534 5.389082,-3.338839 11.59905,-9.348173 10.645582,-10.301642 -0.246538,-0.246538 -3.011674,-0.247082 -3.410375,-6.4e-4 -0.194042,0.119923 -0.605341,0.273581 -0.914003,0.341456 -2.317322,0.5096 -16.142925,4.973738 -17.420276,5.624816 -0.983481,0.501293 -4.255232,0.879875 -5.54769,0.641939 -3.25211,-0.598697 -3.626475,-1.829341 -1.699344,-5.58623 3.555991,-6.932314 3.963799,-7.955453 4.29112,-10.765946 0.387396,-3.326313 -1.087129,-5.05047 -4.794726,-5.606461 l -1.554692,-0.233139 0.235148,1.882663 c 0.258133,2.066688 1.520914,5.717852 2.260021,6.534556 0.630605,0.69681 0.594739,1.880032 -0.06466,2.133066 -0.293642,0.112682 -0.977642,-0.05173 -1.519999,-0.365363 -3.448502,-1.994163 -7.854178,-3.977575 -10.731216,-4.83113 -0.941869,-0.279433 -5.315669,-0.272281 -5.771496,0.0094 -0.177183,0.109507 -0.702405,1.018775 -1.167161,2.020602 -0.464756,1.001824 -1.761036,3.724397 -2.880623,6.05016 -1.119586,2.325725 -2.0356117,4.372659 -2.0356117,4.548701 0,0.562924 -1.141962,0.992636 -1.5509774,0.583622 C 7.2988296,78.850829 7.2411631,77.702957 7.6276924,77.264 7.7749231,77.0968 8.225078,76.168 8.6280364,75.2 9.0309948,74.232 10.062533,71.993027 10.920344,70.224509 11.778155,68.455987 12.48,66.852784 12.48,66.66183 c 0,-0.190953 -0.288,-0.422499 -0.64,-0.51455 -1.023977,-0.267776 -0.749111,-2.248598 0.32,-2.306083 0.088,-0.0047 0.594425,-0.190499 1.12539,-0.412816 1.040796,-0.435789 1.069395,-0.487303 3.058146,-5.508381 0.731958,-1.848 1.458099,-3.4968 1.613648,-3.664 0.155549,-0.1672 0.282817,-0.50497 0.282817,-0.750602 0,-0.245632 0.269107,-0.828832 0.598017,-1.296 C 19.166927,51.74223 19.542765,51 19.673213,50.56 c 0.239241,-0.80696 1.700326,-4.327434 4.117051,-9.92 0.722524,-1.672 1.666911,-3.616 2.098639,-4.32 0.431727,-0.704 1.091123,-2.144 1.465325,-3.2 0.374201,-1.056 0.852177,-2.233776 1.062169,-2.61728 0.209991,-0.383504 0.7999,-1.751504 1.310907,-3.04 1.317511,-3.322081 3.175977,-7.683898 3.552783,-8.338378 0.175952,-0.305612 0.319914,-0.775566 0.319914,-1.044342 0,-0.268776 0.128643,-0.73873 0.285875,-1.044342 0.372592,-0.724212 0.903306,-3.285575 1.154781,-5.573263 C 35.245716,9.596944 35.544126,9.1137878 36.614334,8.9144346 36.952507,8.8514416 37.569799,8.1526813 37.98754,7.36 c 1.359616,-2.579935 2.325261,-3.84 2.942765,-3.84 1.091511,0 1.062583,0.9866938 -0.07935,2.7065674 -1.238982,1.86604 -3.422858,6.3431376 -4.150487,8.5087786 -0.268934,0.80044 -0.579827,2.52844 -0.69087,3.84 -0.26089,3.081513 -0.76657,5.034161 -1.429085,5.518317 -0.423725,0.309652 -1.858454,3.896046 -2.798531,6.995488 -0.106822,0.352193 0.09007,0.611855 0.588762,0.776458 l 0.749254,0.247306 -0.8,0.196512 c -0.673045,0.165325 -0.856579,0.480928 -1.156529,1.988759 -0.795302,3.997923 -1.200555,14.093414 -0.825027,20.552723 l 0.221556,3.810909 2.56,0.53935 c 1.408,0.296643 3.020909,0.812298 3.58424,1.145894 2.357085,1.395837 3.224611,5.094471 2.070983,8.829488 -0.362634,1.174064 -0.788698,2.397642 -0.946813,2.719056 C 37.670295,72.217024 37.199607,73.2 36.782433,74.08 c -0.417174,0.88 -1.059187,2.032 -1.426698,2.56 -0.673388,0.96745 -1.21359,2.053386 -1.572275,3.160659 -0.414451,1.279418 1.740938,1.814839 4.776541,1.186538 1.124067,-0.232656 10.768794,-3.212394 12.48,-3.855696 2.693537,-1.012595 7.606513,-2.349053 9.14985,-2.488999 2.14328,-0.194345 3.346877,0.355232 3.679386,1.680055 0.370368,1.475657 -3.096925,5.719437 -7.069235,8.652365 -0.704,0.519792 -1.455002,1.089078 -1.668896,1.265078 -0.962669,0.792128 -1.347546,1.05311 -3.546125,2.404621 -2.610567,1.604761 -2.777642,1.705136 -5.02498,3.018803 -0.88,0.514397 -2.17672,1.323206 -2.881597,1.797354 -0.70488,0.474147 -1.82088,1.16744 -2.48,1.540652 -0.659123,0.373213 -1.693011,0.958836 -2.297536,1.301383 -0.604521,0.342547 -1.681661,0.990547 -2.393638,1.44 C 35.795249,98.192266 35.088177,98.56 34.935956,98.56 c -0.152221,0 -0.537398,0.288 -0.855955,0.64 -0.318557,0.352 -0.693654,0.64 -0.833555,0.64 -0.309603,0 -2.604953,1.51775 -5.406445,3.57488 -1.144,0.84004 -2.843515,2.07135 -3.7767,2.73623 -0.933185,0.66489 -2.03646,1.49689 -2.451723,1.84889 -0.415263,0.352 -1.082597,0.856 -1.482965,1.12 -0.884793,0.58343 -4.886283,4.19852 -5.035279,4.54905 -0.144723,0.34048 0.386129,0.3184 0.762666,-0.0317 0.1672,-0.15547 1.672001,-0.80904 3.344001,-1.45237 3.387966,-1.30358 7.339123,-2.91015 8.8,-3.57815 1.067387,-0.48806 5.057955,-2.01452 9.92,-3.79455 1.76,-0.64435 3.895837,-1.4598 4.746307,-1.81211 5.375015,-2.22665 16.22658,-4.96756 22.058139,-5.5715 1.792128,-0.185596 2.13471,-0.146665 1.991581,0.226324 -0.09508,0.247763 -0.925079,0.613894 -1.844445,0.813628 -0.91937,0.199732 -3.039581,0.652205 -4.711581,1.005498 -1.672,0.353293 -3.472,0.78477 -4,0.95884 -0.528,0.17408 -2.256,0.69033 -3.84,1.14724 -3.433655,0.99045 -5.843914,1.73993 -6.720001,2.08962 -0.906681,0.3619 -4.468816,1.71649 -6.64,2.52501 -4.102528,1.52773 -5.53455,2.10535 -5.824,2.34914 -0.1672,0.14083 -0.5272,0.25694 -0.8,0.25803 -0.2728,9.6e-4 -0.90846,0.21708 -1.412578,0.48 -0.504118,0.26293 -1.033602,0.47804 -1.176631,0.47804 -0.143029,0 -1.337493,0.49768 -2.654365,1.10596 -1.316872,0.60827 -3.667389,1.60753 -5.22337,2.22058 -1.555981,0.61305 -3.4341,1.41137 -4.173599,1.77405 -0.739498,0.36267 -1.483498,0.65941 -1.653333,0.65941 -0.169835,0 -0.356791,0.108 -0.415458,0.24 -0.05867,0.132 -0.953832,0.64383 -1.989256,1.13741 -1.799472,0.85779 -3.481385,1.89315 -6.5655647,4.04164 -1.6598986,1.15632 -2.1254238,1.21247 -2.6060926,0.31433 z M 30.240963,66.64 c -0.208882,-0.80473 -0.765666,-4.587245 -0.790492,-5.370205 -0.02651,-0.836073 -3.111033,-0.319152 -8.01047,1.342435 -3.409522,1.156301 -3.447005,1.215143 -1.037314,1.628359 1.884561,0.323165 6.881883,2.09272 8.372706,2.964777 0.277534,0.162346 0.772219,0.299552 1.099298,0.304903 0.491875,0.008 0.5552,-0.142413 0.366272,-0.870269 z m -8.640962,-6.028771 c 3.014928,-0.885085 4.315725,-1.204368 6.334802,-1.55489 l 1.214803,-0.210893 -0.228454,-5.022723 C 28.657037,48.015994 28.670364,44.124954 28.967127,40.4 c 0.115679,-1.452 0.135857,-2.64 0.04484,-2.64 -0.198289,0 -2.191458,4.211878 -3.785807,8 -0.407412,0.968 -1.569967,3.459878 -2.583454,5.537507 -1.013487,2.077626 -1.842704,3.973626 -1.842704,4.213331 0,0.239706 -0.120038,0.483828 -0.266751,0.542496 -0.237634,0.09502 -2.933249,5.246202 -2.933249,5.605284 0,0.07948 0.252,0.06657 0.56,-0.0287 0.308,-0.09527 1.856,-0.553677 3.44,-1.018688 z m 3.162098,-18.22785 c 0.109279,-0.284774 0.05563,-0.413222 -0.125764,-0.301113 -0.173984,0.107526 -0.316334,0.331008 -0.316334,0.49662 0,0.460298 0.229365,0.358868 0.442098,-0.195507 z M 25.5902,40.48 c 0,-0.176 -0.139589,-0.104 -0.310199,0.16 -0.17061,0.264 -0.3102,0.624 -0.3102,0.8 0,0.176 0.13959,0.104 0.3102,-0.16 0.17061,-0.264 0.310199,-0.624 0.310199,-0.8 z m 1.289801,-2.63369 c 0,-0.283753 0.189455,-0.743254 0.421012,-1.021113 C 27.53257,36.547338 28.122724,35.24 28.612467,33.92 c 0.489743,-1.32 1.092288,-2.853763 1.338988,-3.408361 0.623261,-1.401132 0.560211,-1.619907 -0.191454,-0.66432 -0.352,0.447495 -0.64,1.036139 -0.64,1.308097 0,0.646719 -0.677547,2.124584 -0.974043,2.124584 -0.127222,0 -0.337286,0.324 -0.46681,0.72 -0.357344,1.092534 -1.028977,3.186381 -1.299111,4.050038 -0.171368,0.547892 -0.133992,0.703997 0.129556,0.541114 0.203724,-0.125907 0.370408,-0.461085 0.370408,-0.744842 z M 30.618597,28.1 c -0.102152,-0.255275 -0.177978,-0.179448 -0.193333,0.193333 -0.01389,0.337334 0.06174,0.526334 0.16807,0.42 C 30.699667,28.607 30.711036,28.331 30.618598,28.1 Z"
     id="path12"
     inkscape:connector-curvature="0"
     sodipodi:nodetypes="csscsccssccscsscccsssccssccscccsccssscccssscsscscscscsssssccsssccsscscccsscsscccccccsccsssccscccscsccccscscscccscscscccccssssccscccsssssscssccccscsssssssssssscccsccccc" />
</svg>
