<?xml version="1.0" encoding="UTF-8" standalone="no"?>
<!-- Created with Inkscape (http://www.inkscape.org/) -->

<svg
   xmlns:dc="http://purl.org/dc/elements/1.1/"
   xmlns:cc="http://creativecommons.org/ns#"
   xmlns:rdf="http://www.w3.org/1999/02/22-rdf-syntax-ns#"
   xmlns:svg="http://www.w3.org/2000/svg"
   xmlns="http://www.w3.org/2000/svg"
   xmlns:sodipodi="http://sodipodi.sourceforge.net/DTD/sodipodi-0.dtd"
   xmlns:inkscape="http://www.inkscape.org/namespaces/inkscape"
   version="1.1"
   id="svg2"
   width="91.519997"
   height="110.08"
   viewBox="0 0 91.519997 110.08"
   sodipodi:docname="g.svg"
   inkscape:version="0.92.3 (2405546, 2018-03-11)">
  <metadata
     id="metadata8">
    <rdf:RDF>
      <cc:Work
         rdf:about="">
        <dc:format>image/svg+xml</dc:format>
        <dc:type
           rdf:resource="http://purl.org/dc/dcmitype/StillImage" />
        <dc:title></dc:title>
      </cc:Work>
    </rdf:RDF>
  </metadata>
  <defs
     id="defs6" />
  <sodipodi:namedview
     pagecolor="#ffffff"
     bordercolor="#666666"
     borderopacity="1"
     objecttolerance="10"
     gridtolerance="10"
     guidetolerance="10"
     inkscape:pageopacity="0"
     inkscape:pageshadow="2"
     inkscape:window-width="1920"
     inkscape:window-height="1025"
     id="namedview4"
     showgrid="false"
     inkscape:zoom="2.1438953"
     inkscape:cx="45.759998"
     inkscape:cy="55.040001"
     inkscape:window-x="0"
     inkscape:window-y="27"
     inkscape:window-maximized="1"
     inkscape:current-layer="svg2" />
  <path
     style="fill:#000000;stroke-width:0.31999999"
     d="M 14.724777,94.631085 C 12.38064,94.22529 10.478941,92.888128 9.7480989,91.131773 8.7502804,88.733824 9.2820784,82.818598 10.757213,79.907334 c 0.813081,-1.604665 2.978568,-4.757779 4.08165,-5.943196 2.329745,-2.503636 7.968066,-6.501972 12.041136,-8.538797 3.047161,-1.523799 5.468605,-2.487015 9.6,-3.818752 2.024,-0.652429 4.256,-1.378067 4.96,-1.612535 0.704,-0.234464 1.87872,-0.519456 2.610486,-0.633318 0.731766,-0.113859 1.574582,-0.385507 1.872925,-0.603661 0.517104,-0.378115 1.307299,-3.389824 2.102588,-8.013693 0.179418,-1.043139 0.379728,-1.983206 0.445133,-2.089036 0.06541,-0.105831 0.277575,-1.351152 0.471482,-2.76738 0.19391,-1.41623 0.42232,-2.924163 0.507581,-3.350963 0.493488,-2.470342 1.039059,-12.296555 0.912819,-16.440706 -0.08016,-2.631586 -0.196611,-4.835561 -0.258775,-4.897723 -0.06216,-0.06216 -0.525043,0.272211 -1.02863,0.743048 -2.80952,2.626816 -5.200729,3.678079 -8.67887,3.815552 -4.347104,0.171818 -7.280336,-1.234623 -8.543314,-4.096391 -0.579858,-1.313892 -0.66168,-1.869752 -0.445533,-3.026731 0.826438,-4.4237 7.222613,-10.2784869 13.549013,-12.4021902 3.396323,-1.1401082 4.762573,-0.9471332 6.479162,0.9151452 2.100524,2.2787997 3.717107,6.417178 2.958643,7.573993 -0.279744,0.426667 -0.349722,0.426667 -0.629812,0 -0.173305,-0.264 -0.317305,-0.805954 -0.32,-1.204342 -0.0075,-1.110625 -0.614838,-2.070557 -2.783001,-4.3987748 C 49.413752,7.7766026 49.213915,7.68 47.68948,7.68 c -1.891219,0 -5.955139,1.6890355 -8.329481,3.461878 -1.576253,1.176936 -4.48,4.036661 -4.48,4.412082 0,0.129605 -0.220903,0.47974 -0.490893,0.778077 -0.557309,0.615817 -1.273901,4.472284 -0.884413,4.759617 0.140416,0.10359 0.409229,0.476346 0.597357,0.828346 0.665418,1.24504 2.626966,1.920045 5.577949,1.919472 3.236684,-6.4e-4 3.98582,-0.162886 5.88167,-1.273927 3.216601,-1.885055 4.644985,-4.253718 4.621229,-7.663313 -0.01245,-1.788236 0.09753,-2.30038 0.567884,-2.644313 0.320836,-0.2346 0.728912,-0.37802 0.906839,-0.318711 0.419984,0.139994 0.896563,2.427865 0.683881,3.28303 -0.09058,0.364231 -0.178096,4.972231 -0.194464,10.24 -0.03037,9.773631 -0.578668,16.117288 -2.072454,23.977762 -0.267574,1.408 -0.566931,3.042045 -0.665238,3.631206 -0.09831,0.589165 -0.382071,1.741165 -0.630583,2.56 -0.61007,2.01017 -0.586009,2.596228 0.101235,2.465626 10.015552,-1.903302 21.198384,-2.465402 27.151558,-1.364758 2.892259,0.534729 8.065308,2.057411 8.702003,2.561424 0.985382,0.780035 -0.370333,0.794585 -3.941158,0.04231 -6.028839,-1.270122 -7.268583,-1.381059 -14.072403,-1.259264 -7.673834,0.137369 -14.661843,1.053827 -18.32,2.402611 -0.572,0.210902 -1.04,0.442016 -1.04,0.513587 0,0.299523 -1.626127,6.208109 -2.236739,8.127261 -0.964588,3.031709 -2.911174,8.010509 -3.565686,9.12 -0.311482,0.528 -1.103517,1.92433 -1.760083,3.102957 -0.65657,1.178627 -1.3116,2.070128 -1.455626,1.981113 -0.144025,-0.08901 -0.26542,0.02666 -0.269766,0.257044 -0.0088,0.464435 -3.186621,3.857187 -4.654477,4.969219 -0.515692,0.390681 -1.299532,0.98632 -1.741865,1.323635 -4.900796,3.737267 -11.74566,5.658208 -16.950979,4.757117 z m 8.008732,-2.335879 C 28.253482,90.93111 34.558741,86.199088 38.263679,80.64 c 2.28784,-3.4328 4.695452,-9.382531 6.571808,-16.240355 0.373148,-1.363805 0.748243,-2.722595 0.833542,-3.019533 0.134617,-0.468608 0.01357,-0.50112 -0.916966,-0.246253 -0.589636,0.161501 -2.728064,0.736211 -4.752064,1.277139 -2.024,0.540925 -3.968,1.105056 -4.32,1.253626 -0.352,0.148566 -1.165763,0.500803 -1.808362,0.782749 C 33.229039,64.729318 32.628732,64.96 32.537625,64.96 c -0.425415,0 -6.421175,2.99464 -8.399485,4.195203 -4.72201,2.86561 -7.651398,5.416064 -9.745446,8.484816 -0.585473,0.857991 -1.34727,1.977104 -1.692883,2.486925 -0.345612,0.509818 -0.760576,1.445818 -0.922141,2.08 -0.161566,0.634179 -0.426202,1.657056 -0.588079,2.273056 -0.40971,1.559088 -0.338663,4.424554 0.142775,5.758429 0.46668,1.292989 1.927602,2.27368 3.851979,2.585769 1.697229,0.275248 5.322753,0.02118 7.549164,-0.528992 z"
     id="path12"
     inkscape:connector-curvature="0" />
</svg>
