<?xml version="1.0" encoding="UTF-8" standalone="no"?>
<!-- Created with Inkscape (http://www.inkscape.org/) -->

<svg
   xmlns:dc="http://purl.org/dc/elements/1.1/"
   xmlns:cc="http://creativecommons.org/ns#"
   xmlns:rdf="http://www.w3.org/1999/02/22-rdf-syntax-ns#"
   xmlns:svg="http://www.w3.org/2000/svg"
   xmlns="http://www.w3.org/2000/svg"
   xmlns:sodipodi="http://sodipodi.sourceforge.net/DTD/sodipodi-0.dtd"
   xmlns:inkscape="http://www.inkscape.org/namespaces/inkscape"
   version="1.1"
   id="svg2"
   width="25.92"
   height="29.120001"
   viewBox="0 0 25.92 29.120001"
   sodipodi:docname="r.svg"
   inkscape:version="0.92.3 (2405546, 2018-03-11)">
  <metadata
     id="metadata8">
    <rdf:RDF>
      <cc:Work
         rdf:about="">
        <dc:format>image/svg+xml</dc:format>
        <dc:type
           rdf:resource="http://purl.org/dc/dcmitype/StillImage" />
        <dc:title></dc:title>
      </cc:Work>
    </rdf:RDF>
  </metadata>
  <defs
     id="defs6" />
  <sodipodi:namedview
     pagecolor="#ffffff"
     bordercolor="#666666"
     borderopacity="1"
     objecttolerance="10"
     gridtolerance="10"
     guidetolerance="10"
     inkscape:pageopacity="0"
     inkscape:pageshadow="2"
     inkscape:window-width="1920"
     inkscape:window-height="1025"
     id="namedview4"
     showgrid="false"
     inkscape:zoom="8.1043954"
     inkscape:cx="12.96"
     inkscape:cy="14.56"
     inkscape:window-x="0"
     inkscape:window-y="27"
     inkscape:window-maximized="1"
     inkscape:current-layer="svg2" />
  <path
     style="fill:#000000;stroke-width:0.31999999"
     d="m 8.5028573,24.777144 c -0.2765715,-0.276572 -0.5212349,-0.960572 -0.5436967,-1.52 -0.022462,-0.559429 -0.083045,-1.305143 -0.1346304,-1.657143 -0.051585,-0.352 -0.2353891,-2.44 -0.4084534,-4.64 C 7.157912,13.678198 6.8885264,12.356714 5.9157344,9.6000003 5.2636102,7.7520003 4.517545,5.7807676 4.2578112,5.2194834 3.2639821,3.0718193 4.682097,2.0817742 5.7753875,4.1600001 c 0.9058877,1.721994 1.8942733,4.083436 2.0430183,4.8811612 0.07372,0.3953616 0.1447363,0.7742586 0.157815,0.8419939 C 8.0225043,10.122862 9.28,8.3743452 9.28,8.0702822 9.28,7.5724271 11.988665,5.2190178 13.328188,4.5530347 16.327732,3.0617241 20.456932,2.802263 22.271308,3.9910878 23.300593,4.665501 23.094855,5.3080936 21.888763,5.1859167 18.013171,4.7933202 16.495884,4.9656475 14.4,6.036461 13.021834,6.740583 11.978209,7.5584175 11.307047,8.4602464 10.237655,9.8971715 9.3626486,12.419277 9.4683786,13.76 c 0.034699,0.44 0.1490678,1.664001 0.2541539,2.720001 0.1050857,1.056 0.2758688,2.784 0.3795175,3.84 0.103649,1.056 0.25189,2.320235 0.329423,2.809411 0.276151,1.742285 -0.8618234,2.714524 -1.9286157,1.647732 z"
     id="path12"
     inkscape:connector-curvature="0" />
</svg>
