<?xml version="1.0" encoding="UTF-8" standalone="no"?>
<!-- Created with Inkscape (http://www.inkscape.org/) -->

<svg
   xmlns:dc="http://purl.org/dc/elements/1.1/"
   xmlns:cc="http://creativecommons.org/ns#"
   xmlns:rdf="http://www.w3.org/1999/02/22-rdf-syntax-ns#"
   xmlns:svg="http://www.w3.org/2000/svg"
   xmlns="http://www.w3.org/2000/svg"
   xmlns:sodipodi="http://sodipodi.sourceforge.net/DTD/sodipodi-0.dtd"
   xmlns:inkscape="http://www.inkscape.org/namespaces/inkscape"
   height="1000"
   width="1000"
   sodipodi:docname="2.svg"
   version="1.1"
   id="svg32"
   inkscape:version="0.92.3 (2405546, 2018-03-11)">
  <sodipodi:namedview
     id="base"
     pagecolor="#ffffff"
     bordercolor="#666666"
     borderopacity="1.0"
     inkscape:pageopacity="0.0"
     inkscape:pageshadow="2"
     inkscape:zoom="1"
     inkscape:cx="306.1728"
     inkscape:cy="368.87929"
     inkscape:document-units="px"
     inkscape:current-layer="layer1"
     showgrid="false"
     showguides="true"
     inkscape:window-width="1920"
     inkscape:window-height="1025"
     inkscape:window-x="0"
     inkscape:window-y="27"
     inkscape:window-maximized="1"
     showborder="true"
     inkscape:showpageshadow="false">
    <sodipodi:guide
       id="guide_baseline"
       inkscape:label="baseline"
       position="0,253"
       orientation="0,1"
       inkscape:locked="false" />
    <sodipodi:guide
       id="guide_ascender"
       inkscape:label="ascender"
       position="0,945"
       orientation="0,1"
       inkscape:locked="false" />
    <sodipodi:guide
       id="guide_caps"
       inkscape:label="caps"
       position="0,896"
       orientation="0,1"
       inkscape:locked="false" />
    <sodipodi:guide
       id="guide_xheight"
       inkscape:label="xheight"
       position="0,729"
       orientation="0,1"
       inkscape:locked="false" />
    <sodipodi:guide
       id="guide_descender"
       inkscape:label="descender"
       position="0,28"
       orientation="0,1"
       inkscape:locked="false" />
  </sodipodi:namedview>
  <defs
     id="defs4" />
  <metadata
     id="metadata7">
    <rdf:RDF>
      <cc:Work
         rdf:about="">
        <dc:format>image/svg+xml</dc:format>
        <dc:type
           rdf:resource="http://purl.org/dc/dcmitype/StillImage" />
        <dc:title></dc:title>
      </cc:Work>
    </rdf:RDF>
  </metadata>
  <g
     id="layer1"
     inkscape:groupmode="layer"
     inkscape:label="Layer 1">
    <path
       style="fill:#000000;stroke-width:3.34964848"
       d="m 380.52568,747 c -11.14679,-3.01531 -9.98415,-11.70242 3.00872,-22.48159 19.73152,-16.36983 65.05781,-62.90284 77.27377,-79.33129 10.07051,-13.54315 36.21902,-53.23523 62.96502,-95.57751 5.71125,-9.04175 14.00163,-23.2183 18.42306,-31.50355 4.42133,-8.28514 8.79252,-15.82185 9.71367,-16.74824 2.6815,-2.69647 15.13434,-25.88776 33.54977,-62.48058 11.37111,-22.59526 18.86815,-42.92281 22.35147,-60.60372 l 5.24147,-26.60458 -8.8839,-19.78774 c -17.57739,-39.15194 -61.45736,-53.05079 -113.75029,-36.02997 -14.18828,4.61812 -17.12215,7.21986 -22.91851,20.32358 -7.42219,16.77912 -6.19099,33.14906 3.58936,47.72495 3.13223,4.66794 7.90161,12.8861 10.59871,18.26239 2.69709,5.37629 12.44049,15.71739 21.65202,22.98005 22.24815,17.54138 32.52927,35.91263 20.09789,35.91263 -2.76346,0 -5.02447,-1.13312 -5.02447,-2.51799 0,-1.38498 -6.68328,-6.0635 -14.85182,-10.39689 -17.99557,-9.54661 -32.77589,-29.97528 -42.54964,-45.18205 -9.77365,-15.20667 -11.99729,-20.57511 -13.0361,-27.56886 -1.03839,-6.99365 -3.25471,-15.29387 -3.25471,-23.52343 0,-35.85736 20.34734,-55.26219 64.51182,-61.52363 28.16762,-3.9934 33.74436,-3.71151 58.43546,2.95418 23.42294,6.3233 49.15735,30.5668 55.04006,51.85141 4.77377,17.27205 5.80191,46.18841 2.31524,65.11141 -8.34419,45.28536 -123.12858,236.43986 -183.14622,304.99973 -15.5542,17.768 -16.9554,20.4673 -10.62509,20.4673 6.41552,0 51.10569,-7.39854 97.78985,-16.18927 17.50129,-3.29553 24.09235,-0.9714 22.35985,7.88318 -1.32458,6.76996 -17.67652,13.2867 -41.41851,16.50644 -8.84318,1.19928 -18.75542,3.61323 -22.02719,5.36426 -3.27177,1.75092 -10.38035,3.18363 -15.79673,3.18363 -5.41638,0 -15.69007,2.04653 -22.83037,4.54798 -7.14029,2.50146 -20.519,5.57319 -29.73053,6.82617 -9.21154,1.25298 -20.5166,2.81412 -25.12237,3.46908 -4.60576,0.65528 -10.88363,0.51187 -13.95076,-0.31717 z"
       id="path817"
       inkscape:connector-curvature="0"
       sodipodi:nodetypes="cscssssscsssccsssczzsssssssscccscssc" />
  </g>
</svg>
