<?xml version="1.0" encoding="UTF-8" standalone="no"?>
<!-- Created with Inkscape (http://www.inkscape.org/) -->

<svg
   xmlns:dc="http://purl.org/dc/elements/1.1/"
   xmlns:cc="http://creativecommons.org/ns#"
   xmlns:rdf="http://www.w3.org/1999/02/22-rdf-syntax-ns#"
   xmlns:svg="http://www.w3.org/2000/svg"
   xmlns="http://www.w3.org/2000/svg"
   xmlns:sodipodi="http://sodipodi.sourceforge.net/DTD/sodipodi-0.dtd"
   xmlns:inkscape="http://www.inkscape.org/namespaces/inkscape"
   height="1000"
   width="1000"
   sodipodi:docname="5.svg"
   version="1.1"
   id="svg32"
   inkscape:version="0.92.3 (2405546, 2018-03-11)">
  <sodipodi:namedview
     id="base"
     pagecolor="#ffffff"
     bordercolor="#666666"
     borderopacity="1.0"
     inkscape:pageopacity="0.0"
     inkscape:pageshadow="2"
     inkscape:zoom="0.5"
     inkscape:cx="136"
     inkscape:cy="500"
     inkscape:document-units="px"
     inkscape:current-layer="layer1"
     showgrid="false"
     showguides="true"
     inkscape:window-width="1920"
     inkscape:window-height="1025"
     inkscape:window-x="0"
     inkscape:window-y="27"
     inkscape:window-maximized="1"
     showborder="true"
     inkscape:showpageshadow="false">
    <sodipodi:guide
       id="guide_baseline"
       inkscape:label="baseline"
       position="0,253"
       orientation="0,1"
       inkscape:locked="false" />
    <sodipodi:guide
       id="guide_ascender"
       inkscape:label="ascender"
       position="0,945"
       orientation="0,1"
       inkscape:locked="false" />
    <sodipodi:guide
       id="guide_caps"
       inkscape:label="caps"
       position="0,896"
       orientation="0,1"
       inkscape:locked="false" />
    <sodipodi:guide
       id="guide_xheight"
       inkscape:label="xheight"
       position="0,729"
       orientation="0,1"
       inkscape:locked="false" />
    <sodipodi:guide
       id="guide_descender"
       inkscape:label="descender"
       position="0,28"
       orientation="0,1"
       inkscape:locked="false" />
  </sodipodi:namedview>
  <defs
     id="defs4" />
  <metadata
     id="metadata7">
    <rdf:RDF>
      <cc:Work
         rdf:about="">
        <dc:format>image/svg+xml</dc:format>
        <dc:type
           rdf:resource="http://purl.org/dc/dcmitype/StillImage" />
        <dc:title></dc:title>
      </cc:Work>
    </rdf:RDF>
  </metadata>
  <g
     id="layer1"
     inkscape:groupmode="layer"
     inkscape:label="Layer 1">
    <path
       style="fill:#000000;stroke-width:4.65733099"
       d="M 550.51983,747 C 480.67136,736.32773 409.96522,706.79923 382.90089,676.99857 355.1918,646.48796 344.56901,618.21752 343.75587,572.82164 c -0.78156,-43.65753 3.52953,-67.23687 11.79105,-64.48293 3.42838,1.1425 5.52898,18.12109 5.94727,48.06846 0.70588,50.50555 7.017,68.9464 33.7543,98.6235 29.07848,32.27559 123.14565,64.69455 201.93329,69.59362 52.79317,3.28255 83.76297,-0.51813 97.97365,-12.02596 l 10.32647,-8.3618 -10.53882,-17.05209 c -16.74354,-27.09155 -39.6416,-52.66437 -68.81585,-76.85425 -23.51151,-19.49472 -77.56508,-56.52341 -82.51131,-56.52341 -0.94311,0 -23.43176,-10.12708 -49.97593,-22.50481 -26.54417,-12.37758 -75.50741,-34.79885 -108.80733,-49.82485 -93.12421,-42.02106 -122.18013,-67.85746 -108.95549,-96.88253 7.14245,-15.6757 8.90074,-16.40603 143.88547,-59.76098 l 62.87397,-20.19404 -86.16062,-2.32867 -86.16063,-2.32866 v -13.972 -13.97199 h 107.57081 c 121.49449,0 122.96708,0.37841 122.96708,31.64133 0,16.17913 2.84883,21.55514 20.05912,37.8526 11.03264,10.44741 38.30961,28.42646 60.6156,39.95335 26.63179,13.76227 40.11418,23.33818 39.26844,27.89043 -2.43695,13.11504 -18.08195,10.09534 -62.39019,-12.04168 -40.79924,-20.38412 -56.16931,-32.27778 -79.36122,-61.412 l -8.4644,-10.63327 -32.60132,9.59134 c -17.93072,5.27515 -38.88871,11.76936 -46.57331,14.43161 -7.6846,2.6621 -24.45099,7.69682 -37.25865,11.18807 -36.7037,10.00526 -88.35335,33.52886 -89.87426,40.93299 -1.83077,8.91166 31.25345,29.72775 94.53159,59.4782 188.82727,88.7776 206.39414,98.63281 253.42372,142.1739 34.83495,32.251 74.91812,87.2599 74.91812,102.81539 0,11.34555 -9.91327,23.61645 -29.38776,36.37667 C 681.4668,752.95192 605.43631,755.39077 550.51983,747 Z"
       id="path12"
       inkscape:connector-curvature="0" />
  </g>
</svg>
