<?xml version="1.0" encoding="UTF-8" standalone="no"?>
<!-- Created with Inkscape (http://www.inkscape.org/) -->

<svg
   xmlns:dc="http://purl.org/dc/elements/1.1/"
   xmlns:cc="http://creativecommons.org/ns#"
   xmlns:rdf="http://www.w3.org/1999/02/22-rdf-syntax-ns#"
   xmlns:svg="http://www.w3.org/2000/svg"
   xmlns="http://www.w3.org/2000/svg"
   xmlns:sodipodi="http://sodipodi.sourceforge.net/DTD/sodipodi-0.dtd"
   xmlns:inkscape="http://www.inkscape.org/namespaces/inkscape"
   height="1000"
   width="1000"
   sodipodi:docname="7.svg"
   version="1.1"
   id="svg32"
   inkscape:version="0.92.3 (2405546, 2018-03-11)">
  <sodipodi:namedview
     id="base"
     pagecolor="#ffffff"
     bordercolor="#666666"
     borderopacity="1.0"
     inkscape:pageopacity="0.0"
     inkscape:pageshadow="2"
     inkscape:zoom="0.5"
     inkscape:cx="136"
     inkscape:cy="500"
     inkscape:document-units="px"
     inkscape:current-layer="layer1"
     showgrid="false"
     showguides="true"
     inkscape:window-width="1920"
     inkscape:window-height="1025"
     inkscape:window-x="0"
     inkscape:window-y="27"
     inkscape:window-maximized="1"
     showborder="true"
     inkscape:showpageshadow="false">
    <sodipodi:guide
       id="guide_baseline"
       inkscape:label="baseline"
       position="0,253"
       orientation="0,1"
       inkscape:locked="false" />
    <sodipodi:guide
       id="guide_ascender"
       inkscape:label="ascender"
       position="0,945"
       orientation="0,1"
       inkscape:locked="false" />
    <sodipodi:guide
       id="guide_caps"
       inkscape:label="caps"
       position="0,896"
       orientation="0,1"
       inkscape:locked="false" />
    <sodipodi:guide
       id="guide_xheight"
       inkscape:label="xheight"
       position="0,729"
       orientation="0,1"
       inkscape:locked="false" />
    <sodipodi:guide
       id="guide_descender"
       inkscape:label="descender"
       position="0,28"
       orientation="0,1"
       inkscape:locked="false" />
  </sodipodi:namedview>
  <defs
     id="defs4" />
  <metadata
     id="metadata7">
    <rdf:RDF>
      <cc:Work
         rdf:about="">
        <dc:format>image/svg+xml</dc:format>
        <dc:type
           rdf:resource="http://purl.org/dc/dcmitype/StillImage" />
        <dc:title></dc:title>
      </cc:Work>
    </rdf:RDF>
  </metadata>
  <g
     id="layer1"
     inkscape:groupmode="layer"
     inkscape:label="Layer 1">
    <path
       style="fill:#000000;stroke-width:3.57793427"
       d="m 433.84704,747 c -3.83062,-3.83051 -2.77133,-14.37233 2.7142,-27.01127 2.80477,-6.46231 12.65303,-31.8756 21.88511,-56.4739 9.23196,-24.59829 19.78922,-51.11247 23.4604,-58.92041 3.6713,-7.80795 5.49605,-15.29735 4.05503,-16.64299 -2.95682,-2.76127 -60.9349,7.77776 -68.074,12.37418 -5.94865,3.82995 -15.04957,-3.58386 -15.04957,-12.25957 0,-11.19536 18.60637,-17.0814 73.34765,-23.20324 9.83932,-1.10022 19.65482,-2.55431 21.81221,-3.23099 8.04845,-2.52457 65.76455,-128.04577 74.65773,-162.36576 8.14841,-31.4458 7.32292,-73.65178 -1.72702,-88.29492 -7.79744,-12.61647 -12.14877,-15.12158 -31.64884,-18.22063 -13.30466,-2.11445 -50.90741,4.23157 -63.09408,10.64804 -3.93573,2.0723 -9.14475,4.10177 -11.57562,4.50999 -7.27786,1.2222 -27.30959,14.62369 -36.53172,24.44008 -7.06597,7.52149 -8.48038,12.41991 -7.81242,27.0578 0.61496,13.48333 -0.43941,17.87368 -4.29419,17.87368 -5.05003,0 -12.71285,-14.29989 -14.62347,-27.28969 -5.32609,-36.21082 66.08534,-80.04834 130.39916,-80.04834 41.77071,0 63.53841,21.40946 66.78058,65.68148 1.02977,14.05569 0.0224,34.41123 -2.23084,45.23448 -2.25623,10.82325 -4.67782,22.89878 -5.3811,26.83451 -1.64652,9.21363 -33.97249,85.10363 -51.05567,119.8608 -7.25404,14.75898 -13.56854,27.70719 -14.0321,28.77386 -0.46402,1.06667 8.53147,1.34128 19.98913,0.61048 13.90252,-0.88665 21.73763,0.13641 23.55444,3.07591 3.48603,5.6405 -7.75741,14.05312 -18.78192,14.05312 -4.57025,0 -11.10535,1.51279 -14.52239,3.3618 -3.41704,1.84901 -10.23803,4.19759 -15.15769,5.21898 -9.28038,1.92683 -16.3402,14.10567 -32.35895,55.82204 -4.15611,10.82325 -9.71409,24.50885 -12.35103,30.41244 -14.30883,32.03414 -19.66142,46.3376 -21.81489,58.29484 -3.42062,18.99257 -12.55374,27.80781 -20.53813,19.82343 z"
       id="path3715"
       inkscape:connector-curvature="0" />
  </g>
</svg>
