<?xml version="1.0" encoding="UTF-8" standalone="no"?>
<!-- Created with Inkscape (http://www.inkscape.org/) -->

<svg
   xmlns:dc="http://purl.org/dc/elements/1.1/"
   xmlns:cc="http://creativecommons.org/ns#"
   xmlns:rdf="http://www.w3.org/1999/02/22-rdf-syntax-ns#"
   xmlns:svg="http://www.w3.org/2000/svg"
   xmlns="http://www.w3.org/2000/svg"
   xmlns:sodipodi="http://sodipodi.sourceforge.net/DTD/sodipodi-0.dtd"
   xmlns:inkscape="http://www.inkscape.org/namespaces/inkscape"
   height="1000"
   width="1000"
   sodipodi:docname="A.svg"
   version="1.1"
   id="svg32"
   inkscape:version="0.92.3 (2405546, 2018-03-11)">
  <sodipodi:namedview
     id="base"
     pagecolor="#ffffff"
     bordercolor="#666666"
     borderopacity="1.0"
     inkscape:pageopacity="0.0"
     inkscape:pageshadow="2"
     inkscape:zoom="0.70710678"
     inkscape:cx="535.8858"
     inkscape:cy="539.47339"
     inkscape:document-units="px"
     inkscape:current-layer="layer1"
     showgrid="false"
     showguides="true"
     inkscape:window-width="1920"
     inkscape:window-height="1025"
     inkscape:window-x="0"
     inkscape:window-y="27"
     inkscape:window-maximized="1"
     showborder="true"
     inkscape:showpageshadow="false">
    <sodipodi:guide
       id="guide_baseline"
       inkscape:label="baseline"
       position="0,253"
       orientation="0,1"
       inkscape:locked="false" />
    <sodipodi:guide
       id="guide_ascender"
       inkscape:label="ascender"
       position="0,945"
       orientation="0,1"
       inkscape:locked="false" />
    <sodipodi:guide
       id="guide_caps"
       inkscape:label="caps"
       position="0,896"
       orientation="0,1"
       inkscape:locked="false" />
    <sodipodi:guide
       id="guide_xheight"
       inkscape:label="xheight"
       position="0,729"
       orientation="0,1"
       inkscape:locked="false" />
    <sodipodi:guide
       id="guide_descender"
       inkscape:label="descender"
       position="0,28"
       orientation="0,1"
       inkscape:locked="false" />
  </sodipodi:namedview>
  <defs
     id="defs4" />
  <metadata
     id="metadata7">
    <rdf:RDF>
      <cc:Work
         rdf:about="">
        <dc:format>image/svg+xml</dc:format>
        <dc:type
           rdf:resource="http://purl.org/dc/dcmitype/StillImage" />
        <dc:title></dc:title>
      </cc:Work>
    </rdf:RDF>
  </metadata>
  <g
     id="layer1"
     inkscape:groupmode="layer"
     inkscape:label="Layer 1">
    <path
       style="fill:#000000;stroke-width:4.66437149"
       d="m 633.9659,747 c -21.09783,-4.0083 -42.80626,-25.25336 -58.01664,-56.77869 -20.86199,-43.23874 -29.37711,-64.04068 -29.37711,-71.76665 0,-8.39396 0.61221,-8.39848 -26.65719,0.19533 -42.0948,13.2649 -50.39942,15.66093 -97.15627,28.02997 -49.04123,12.97351 -48.83541,12.81695 -59.75412,45.4377 -1.51009,4.51177 -8.2023,10.68929 -14.87148,13.72798 -18.47224,8.41645 -21.79502,-0.83084 -18.77382,-52.24944 2.97455,-50.62799 5.89169,-72.02391 12.08262,-88.6231 3.88804,-10.42443 11.3716,-52.46007 28.02561,-157.42261 2.95109,-18.5992 7.53996,-33.81671 10.19747,-33.81671 4.68945,0 3.40091,41.12126 -3.87332,123.60591 -1.5837,17.95783 -1.35267,31.19123 0.51455,29.40755 1.86632,-1.78368 3.95742,-9.13007 4.64673,-16.32531 0.68944,-7.19535 2.30579,-16.23084 3.59214,-20.07895 5.21317,-15.59474 12.50344,-45.13818 14.38756,-58.30468 1.10195,-7.69621 4.24648,-25.53744 6.98898,-39.64719 2.74251,-14.10972 6.16673,-40.08925 7.60919,-57.73224 1.44306,-17.64301 3.40151,-33.38525 4.35347,-34.98281 0.95181,-1.59756 3.06581,-21.24506 4.69747,-43.66131 3.4872,-47.91011 5.59579,-54.86295 16.63811,-54.86295 14.50212,0 17.7787,9.90058 13.89267,41.97937 -2.01994,16.67514 -5.12058,43.96171 -6.89014,60.63685 -1.76968,16.67513 -3.83309,31.36793 -4.58551,32.65062 -0.75214,1.28269 -2.86522,18.01279 -4.69543,37.17812 -1.83004,19.16533 -5.21331,39.80636 -7.51838,45.86902 -2.30507,6.0628 -3.34305,12.42121 -2.30669,14.12998 1.03638,1.70877 -8.13671,42.98732 -20.38446,91.73002 -12.24792,48.74271 -20.74876,90.29558 -18.89086,92.33973 3.14116,3.45586 57.61841,-6.38043 84.10157,-15.18531 6.41352,-2.13234 23.80594,-6.3638 38.64988,-9.40351 l 26.98894,-5.52657 -2.0035,-17.11898 c -1.10196,-9.4156 -5.36199,-41.25726 -9.46679,-70.75941 -4.10479,-29.50216 -10.85967,-85.12484 -15.01083,-123.6059 -4.15115,-38.4811 -8.23889,-76.26251 -9.08401,-83.95875 -0.84542,-7.69621 -2.61337,-25.53744 -3.92957,-39.64717 -6.01735,-64.50216 -8.85578,-82.96683 -15.61955,-101.61047 l -7.25002,-19.98377 -10.86451,10.20666 c -18.71478,17.58164 -46.958,70.07347 -60.55944,112.55368 -7.18738,22.4473 -14.44763,40.81327 -16.13408,40.81327 -4.46032,0 4.63944,-46.19057 12.86345,-65.29526 3.86662,-8.98228 11.08008,-27.84499 16.02971,-41.91727 14.2275,-40.44916 49.51175,-88.69117 64.86876,-88.69117 23.07712,0 34.54203,39.93594 44.18882,153.92433 2.10494,24.87335 5.64156,59.73591 9.46329,93.28749 1.02324,8.97892 3.06259,34.16654 4.53288,55.97247 3.03244,44.97273 15.56387,151.95729 19.2901,164.68636 1.35704,4.63639 7.53561,10.35666 13.7296,12.71158 12.96433,4.92893 14.19427,10.26541 4.26527,18.50577 -7.51168,6.23392 -9.35017,23.30656 -3.29027,30.55164 2.03848,2.43715 7.54434,16.2574 12.23508,30.7117 4.69091,14.4543 16.25199,35.24778 25.69137,46.20777 14.02301,16.28187 20.94625,20.43373 37.84572,22.69538 13.92243,1.86326 21.16066,5.25195 22.14397,10.36715 1.66008,8.63651 -16.33319,12.87396 -37.55054,8.84307 z M 372.41509,535.82033 c -1.29438,-3.20677 -2.35274,-0.58304 -2.35274,5.83048 0,6.41351 1.05822,9.0372 2.35274,5.83046 1.29436,-3.20677 1.29436,-8.45419 0,-11.66094 z m 5.7876,-171.80449 c -1.07135,-15.65566 1.42992,-42.09173 5.12557,-54.17843 2.57793,-8.43145 3.05502,-0.65741 1.34538,21.91658 -2.47663,32.69842 -5.43282,47.43739 -6.4708,32.26185 z"
       id="path3715"
       inkscape:connector-curvature="0"
       sodipodi:nodetypes="csscsscsssssccscssccssscsscscsccssscsscssscssscscsccsccccsscsccccc" />
  </g>
</svg>
