<?xml version="1.0" encoding="UTF-8" standalone="no"?>
<!-- Created with Inkscape (http://www.inkscape.org/) -->

<svg
   xmlns:dc="http://purl.org/dc/elements/1.1/"
   xmlns:cc="http://creativecommons.org/ns#"
   xmlns:rdf="http://www.w3.org/1999/02/22-rdf-syntax-ns#"
   xmlns:svg="http://www.w3.org/2000/svg"
   xmlns="http://www.w3.org/2000/svg"
   xmlns:sodipodi="http://sodipodi.sourceforge.net/DTD/sodipodi-0.dtd"
   xmlns:inkscape="http://www.inkscape.org/namespaces/inkscape"
   height="1000"
   width="1000"
   sodipodi:docname="arg.svg"
   version="1.1"
   id="svg32"
   inkscape:version="0.92.3 (2405546, 2018-03-11)">
  <sodipodi:namedview
     id="base"
     pagecolor="#ffffff"
     bordercolor="#666666"
     borderopacity="1.0"
     inkscape:pageopacity="0.0"
     inkscape:pageshadow="2"
     inkscape:zoom="0.70710678"
     inkscape:cx="330.82484"
     inkscape:cy="431.99315"
     inkscape:document-units="px"
     inkscape:current-layer="layer1"
     showgrid="false"
     showguides="true"
     inkscape:window-width="1920"
     inkscape:window-height="1025"
     inkscape:window-x="0"
     inkscape:window-y="27"
     inkscape:window-maximized="1"
     showborder="true"
     inkscape:showpageshadow="false">
    <sodipodi:guide
       id="guide_baseline"
       inkscape:label="baseline"
       position="0,253"
       orientation="0,1"
       inkscape:locked="false" />
    <sodipodi:guide
       id="guide_ascender"
       inkscape:label="ascender"
       position="0,945"
       orientation="0,1"
       inkscape:locked="false" />
    <sodipodi:guide
       id="guide_caps"
       inkscape:label="caps"
       position="0,896"
       orientation="0,1"
       inkscape:locked="false" />
    <sodipodi:guide
       id="guide_xheight"
       inkscape:label="xheight"
       position="0,729"
       orientation="0,1"
       inkscape:locked="false" />
    <sodipodi:guide
       id="guide_descender"
       inkscape:label="descender"
       position="0,28"
       orientation="0,1"
       inkscape:locked="false" />
  </sodipodi:namedview>
  <defs
     id="defs4" />
  <metadata
     id="metadata7">
    <rdf:RDF>
      <cc:Work
         rdf:about="">
        <dc:format>image/svg+xml</dc:format>
        <dc:type
           rdf:resource="http://purl.org/dc/dcmitype/StillImage" />
        <dc:title></dc:title>
      </cc:Work>
    </rdf:RDF>
  </metadata>
  <g
     id="layer1"
     inkscape:groupmode="layer"
     inkscape:label="Layer 1">
    <path
       style="fill:#000000;stroke-width:2.5145154"
       d="m 255.91579,971.45641 c -3.41102,-6.37357 -0.75751,-9.7387 22.7426,-28.84327 8.9894,-7.30797 20.87048,-17.42653 26.40242,-22.48566 5.53194,-5.05913 15.03468,-13.35435 21.11714,-18.43376 6.08253,-5.07947 16.83209,-14.37226 23.88789,-20.65077 7.05589,-6.2785 17.35495,-14.68116 22.88689,-18.67264 5.53193,-3.99139 11.75535,-8.76646 13.82983,-10.61125 4.77067,-4.24246 69.3002,-50.00742 77.34272,-54.85227 2.29583,-1.38298 9.48845,-5.90911 15.98352,-10.05806 6.49515,-4.14895 17.66509,-10.93814 24.82219,-15.08709 7.15703,-4.14895 16.59887,-9.81179 20.98176,-12.58413 4.38295,-2.77233 19.28429,-11.71622 33.11412,-19.87528 13.82983,-8.15905 29.10551,-17.37428 33.94596,-20.47829 4.84044,-3.10401 18.98458,-11.95306 31.43144,-19.66454 42.34664,-26.23613 91.14372,-73.45661 83.65148,-80.94884 -1.93728,-1.93728 -23.66528,-1.9416 -26.79821,-0.005 -1.52482,0.94231 -4.75676,2.14975 -7.18217,2.68306 -18.20917,4.00436 -126.84881,39.08295 -136.88605,44.19905 -7.72805,3.93907 -33.43708,6.9139 -43.59297,5.04428 -25.55463,-4.7045 -28.49638,-14.37471 -13.35326,-43.89583 27.94247,-54.4732 31.14699,-62.51289 33.71903,-84.59733 3.04413,-26.13768 -8.54252,-39.68589 -37.67625,-44.05478 l -12.21662,-1.83197 1.84778,14.79367 c 2.02843,16.23976 11.95118,44.93015 17.75893,51.34766 4.95524,5.47543 4.67338,14.77301 -0.50841,16.76137 -2.30738,0.88542 -7.68215,-0.40626 -11.94395,-2.87102 -27.09783,-15.66983 -61.71697,-31.2552 -84.32435,-37.96235 -7.40109,-2.19572 -41.76979,-2.13954 -45.35164,0.0707 -1.39225,0.86052 -5.51937,8.00544 -9.17139,15.87768 -3.65193,7.87216 -13.83792,29.26573 -22.6355,47.54131 -8.79759,18.27519 -15.99554,34.35968 -15.99554,35.74306 0,4.42334 -8.97345,7.79994 -12.18739,4.586 -3.38038,-3.38014 -3.83353,-12.39994 -0.79623,-15.84922 1.15691,-1.31384 4.6942,-8.61222 7.86053,-16.21863 3.1664,-7.60641 11.27209,-25.19993 18.01265,-39.09671 6.74055,-13.89679 12.25559,-26.49451 12.25559,-27.99504 0,-1.50046 -2.26306,-3.31987 -5.02903,-4.04327 -8.0463,-2.10409 -5.8864,-17.66911 2.51451,-18.12085 0.6915,-0.0393 4.67088,-1.49693 8.84316,-3.24381 8.17839,-3.42437 8.40312,-3.82921 24.03044,-43.28416 5.75164,-14.52132 11.45755,-27.47736 12.67984,-28.7912 1.22228,-1.31383 2.22236,-3.96798 2.22236,-5.89811 0,-1.93012 2.11462,-6.51283 4.69916,-10.18378 2.58444,-3.67096 5.53774,-9.5033 6.56281,-12.96076 1.87991,-6.34098 13.36095,-34.00434 32.3512,-77.94997 5.67754,-13.13835 13.09835,-28.41403 16.49082,-33.94596 3.39248,-5.53194 8.57387,-16.84725 11.51436,-25.14516 2.9404,-8.2979 6.69624,-17.55266 8.3463,-20.56622 1.65015,-3.01349 6.28551,-13.76304 10.30094,-23.8879 10.35282,-26.10444 24.95641,-60.37893 27.91726,-65.52174 1.38267,-2.40153 2.51389,-6.09433 2.51389,-8.20636 0,-2.11196 1.01084,-5.80484 2.24632,-8.20628 2.92785,-5.69074 7.09809,-25.81756 9.07411,-43.79391 1.61133,-14.65844 3.95619,-18.45504 12.36576,-20.0215 2.65728,-0.49505 7.50795,-5.985731 10.79048,-12.214582 10.68363,-20.272722 18.27157,-30.174179 23.1238,-30.174179 8.57693,0 8.34969,7.753345 -0.62392,21.267845 -9.73572,14.663083 -26.89634,49.843506 -32.61388,66.860806 -2.11329,6.28975 -4.55623,19.86813 -5.42877,30.17419 -2.05003,24.21408 -6.02359,39.55773 -11.22958,43.36219 -3.32954,2.43318 -14.60345,30.61454 -21.99047,54.96959 -0.83937,2.76746 0.708,4.80783 4.6264,6.10123 l 5.88758,1.94333 -6.28629,1.54415 c -5.28873,1.29914 -6.73088,3.77908 -9.08785,15.6274 -6.24943,31.41509 -9.43384,110.74404 -6.48297,161.5004 l 1.74099,29.9456 20.11612,4.23814 c 11.06386,2.33103 23.73781,6.38294 28.16446,9.00433 18.5216,10.96823 25.33853,40.03163 16.27347,69.38082 -2.84957,9.22568 -6.19749,18.8404 -7.4399,21.36599 -1.24248,2.52567 -4.94111,10.24971 -8.21917,17.16463 -3.27806,6.91492 -8.32296,15.96718 -11.2108,20.11612 -5.29141,7.6021 -9.53622,16.13526 -12.35468,24.83603 -3.25669,10.05351 13.68006,14.26076 37.53338,9.32367 8.83279,-1.82814 84.61965,-25.24251 98.0661,-30.29748 21.16546,-7.95686 59.7709,-18.45858 71.89825,-19.55821 16.84159,-1.52717 26.29931,2.79135 28.91205,13.20159 2.91032,11.59554 -24.33516,44.94257 -55.54902,67.98912 -5.53193,4.08444 -11.43319,8.55777 -13.11399,9.94075 -7.56452,6.22445 -10.58878,8.27519 -27.86491,18.89525 -20.5135,12.60997 -21.82631,13.39867 -39.48559,23.72131 -6.91492,4.04208 -17.10437,10.39752 -22.64321,14.12332 -5.53886,3.72581 -14.30823,9.17359 -19.4875,12.10622 -5.17927,2.9327 -13.30343,7.53443 -18.05367,10.22614 -4.75031,2.69162 -13.21432,7.78353 -18.80888,11.31531 -5.59465,3.53172 -11.15078,6.42129 -12.34691,6.42129 -1.19612,0 -4.22273,2.26307 -6.72593,5.02903 -2.50321,2.76597 -5.45069,5.02904 -6.55,5.02904 -2.4328,0 -20.46933,11.92627 -42.48305,28.0909 -8.98939,6.60092 -22.34398,16.27638 -29.67679,21.50091 -7.33288,5.22462 -16.00222,11.76236 -19.26526,14.52833 -3.26315,2.76596 -8.50692,6.72633 -11.65298,8.8008 -6.95256,4.58452 -38.39571,32.99139 -39.56652,35.74581 -1.1372,2.67544 3.03414,2.50193 5.99294,-0.24911 1.31384,-1.22166 13.13835,-6.35731 26.2767,-11.41251 26.62211,-10.24335 57.66977,-22.86756 69.14917,-28.11661 8.3874,-3.8351 39.74466,-15.82981 77.94998,-29.81705 13.82983,-5.06321 30.61296,-11.47089 37.29584,-14.23929 42.23608,-17.49672 127.5062,-39.0344 173.32971,-43.78008 14.08231,-1.45835 16.77425,-1.15244 15.64963,1.77847 -0.74728,1.94686 -7.26915,4.82386 -14.49343,6.39339 -7.22428,1.56945 -23.88459,5.1249 -37.02294,7.901 -13.13834,2.77618 -27.28249,6.16662 -31.43144,7.53444 -4.14895,1.36789 -17.72733,5.42451 -30.17418,9.01484 -26.98122,7.78282 -45.92063,13.67213 -52.80483,16.41994 -7.12456,2.84377 -35.11537,13.48795 -52.17619,19.84119 -32.23711,12.00468 -43.48972,16.54354 -45.76418,18.4592 -1.31384,1.10663 -4.14267,2.01901 -6.28629,2.02758 -2.14363,0.007 -7.13855,1.70578 -11.09986,3.77176 -3.9613,2.06607 -8.12189,3.75637 -9.24579,3.75637 -1.12391,0 -10.50982,3.91071 -20.85767,8.69048 -10.34779,4.77971 -28.81777,12.63175 -41.04452,17.44902 -12.22667,4.81726 -26.98468,11.09035 -32.79548,13.94023 -5.81089,2.84982 -11.65714,5.18155 -12.99172,5.18155 -1.3345,0 -2.80361,0.84865 -3.26463,1.8859 -0.46126,1.03723 -7.49507,5.05912 -15.63124,8.9376 -14.13999,6.7404 -27.35628,14.87611 -51.59134,31.75861 -13.04326,9.08621 -16.70126,9.52743 -20.47829,2.46999 z m 202.538,-429.1443 c -1.64135,-6.32346 -6.01653,-36.04589 -6.21156,-42.19828 -0.20823,-6.56973 -24.44604,-2.50784 -62.94516,10.54862 -26.79153,9.08612 -27.08612,9.54848 -8.15111,12.79543 14.80869,2.53942 54.07693,16.4443 65.79158,23.29682 2.1808,1.27573 6.06801,2.35382 8.63815,2.39586 3.86505,0.0629 4.36269,-1.11903 2.8781,-6.83845 z m -67.89946,-47.37324 c 23.6909,-6.95483 33.91233,-9.46369 49.77798,-12.21811 l 9.54573,-1.65714 -1.79512,-39.46783 c -2.07543,-45.62848 -1.97069,-76.20373 0.36145,-105.47394 0.909,-11.40962 1.06757,-20.74475 0.35204,-20.74475 -1.55806,0 -17.22011,33.09635 -29.7483,62.86288 -3.20137,7.60641 -12.3366,27.18725 -20.30046,43.51298 -7.96379,16.32572 -14.47968,31.22423 -14.47968,33.10776 0,1.88361 -0.94326,3.80187 -2.09609,4.26289 -1.86734,0.7465 -23.04907,41.2239 -23.04907,44.04551 0,0.6247 1.98018,0.52333 4.40041,-0.22552 2.42022,-0.74886 14.58419,-4.35066 27.03104,-8.00473 z m 24.84735,-143.2319 c 0.8587,-2.23769 0.43689,-3.24702 -0.98829,-2.36608 -1.36711,0.84495 -2.48567,2.60102 -2.48567,3.90237 0,3.61697 1.80228,2.81995 3.47396,-1.53629 z m 6.50709,-14.9565 c 0,-1.38298 -1.09688,-0.81721 -2.43751,1.25726 -1.34062,2.07447 -2.43751,4.9033 -2.43751,6.28629 0,1.38298 1.09689,0.81722 2.43751,-1.25726 1.34063,-2.07447 2.43751,-4.9033 2.43751,-6.28629 z m 10.13507,-20.69516 c 0,-2.22968 1.48867,-5.84036 3.30824,-8.02374 1.81957,-2.18339 6.45688,-12.45629 10.30519,-22.82866 3.84839,-10.37238 8.58306,-22.42445 10.52159,-26.78242 4.89749,-11.00989 4.40205,-12.72895 -1.50438,-5.22013 -2.76597,3.51639 -5.02904,8.14184 -5.02904,10.27886 0,5.08184 -5.32408,16.69465 -7.65386,16.69465 -0.99976,0 -2.65038,2.54595 -3.66814,5.65766 -2.808,8.58503 -8.08557,25.03821 -10.20829,31.82466 -1.34653,4.30524 -1.05288,5.53193 1.01805,4.25204 1.60081,-0.98939 2.91064,-3.62318 2.91064,-5.85292 z m 29.37732,-76.58515 c -0.80269,-2.00588 -1.39847,-1.41002 -1.51917,1.51924 -0.10922,2.65069 0.48484,4.13582 1.32068,3.3003 0.83553,-0.83561 0.92487,-3.00438 0.19881,-4.81954 z"
       id="path12"
       inkscape:connector-curvature="0"
       sodipodi:nodetypes="csscsccssccscsscccsssccssccscccsccssscccssscsscscscscsssssccsssccsscscccsscsscccccccsccsssccscccscsccccscscscccscscscccccssssccscccsssssscssccccscsssssssssssscccsccccc" />
  </g>
</svg>
