<?xml version="1.0" encoding="UTF-8" standalone="no"?>
<!-- Created with Inkscape (http://www.inkscape.org/) -->

<svg
   xmlns:dc="http://purl.org/dc/elements/1.1/"
   xmlns:cc="http://creativecommons.org/ns#"
   xmlns:rdf="http://www.w3.org/1999/02/22-rdf-syntax-ns#"
   xmlns:svg="http://www.w3.org/2000/svg"
   xmlns="http://www.w3.org/2000/svg"
   xmlns:sodipodi="http://sodipodi.sourceforge.net/DTD/sodipodi-0.dtd"
   xmlns:inkscape="http://www.inkscape.org/namespaces/inkscape"
   height="1000"
   width="1000"
   sodipodi:docname="g.svg"
   version="1.1"
   id="svg32"
   inkscape:version="0.92.3 (2405546, 2018-03-11)">
  <sodipodi:namedview
     id="base"
     pagecolor="#ffffff"
     bordercolor="#666666"
     borderopacity="1.0"
     inkscape:pageopacity="0.0"
     inkscape:pageshadow="2"
     inkscape:zoom="0.70710678"
     inkscape:cx="476.48883"
     inkscape:cy="306.12815"
     inkscape:document-units="px"
     inkscape:current-layer="layer1"
     showgrid="false"
     showguides="true"
     inkscape:window-width="1920"
     inkscape:window-height="1025"
     inkscape:window-x="0"
     inkscape:window-y="27"
     inkscape:window-maximized="1"
     showborder="true"
     inkscape:showpageshadow="false">
    <sodipodi:guide
       id="guide_baseline"
       inkscape:label="baseline"
       position="0,253"
       orientation="0,1"
       inkscape:locked="false" />
    <sodipodi:guide
       id="guide_ascender"
       inkscape:label="ascender"
       position="0,945"
       orientation="0,1"
       inkscape:locked="false" />
    <sodipodi:guide
       id="guide_caps"
       inkscape:label="caps"
       position="0,896"
       orientation="0,1"
       inkscape:locked="false" />
    <sodipodi:guide
       id="guide_xheight"
       inkscape:label="xheight"
       position="0,729"
       orientation="0,1"
       inkscape:locked="false" />
    <sodipodi:guide
       id="guide_descender"
       inkscape:label="descender"
       position="0,28"
       orientation="0,1"
       inkscape:locked="false" />
  </sodipodi:namedview>
  <defs
     id="defs4" />
  <metadata
     id="metadata7">
    <rdf:RDF>
      <cc:Work
         rdf:about="">
        <dc:format>image/svg+xml</dc:format>
        <dc:type
           rdf:resource="http://purl.org/dc/dcmitype/StillImage" />
        <dc:title></dc:title>
      </cc:Work>
    </rdf:RDF>
  </metadata>
  <g
     id="layer1"
     inkscape:groupmode="layer"
     inkscape:label="Layer 1">
    <path
       style="fill:#000000;stroke-width:1.97028422"
       d="m 300.40518,972 c -14.4332,-2.49856 -26.14222,-10.73165 -30.64211,-21.54573 -6.14371,-14.76451 -2.86935,-51.1854 6.21323,-69.11043 5.0063,-9.88017 18.33946,-29.29431 25.13129,-36.59311 14.34459,-15.41519 49.0605,-40.03352 74.13896,-52.57451 18.76178,-9.38224 33.67098,-15.31292 59.10852,-23.51262 12.46205,-4.01711 26.20478,-8.48491 30.5394,-9.92858 4.33463,-1.44365 11.56754,-3.19838 16.07315,-3.89943 4.50555,-0.70105 9.69491,-2.37364 11.53183,-3.71682 3.18391,-2.32814 8.04922,-20.87159 12.94594,-49.34139 1.10471,-6.42277 2.33805,-12.21091 2.74072,-12.86251 0.40268,-0.65161 1.7091,-8.31922 2.90297,-17.03915 1.19393,-8.71992 2.60028,-18.00445 3.1253,-20.63232 3.03843,-15.21022 6.39757,-75.71162 5.62029,-101.22772 -0.49379,-16.203 -1.21055,-29.7732 -1.59328,-30.15594 -0.38297,-0.38297 -3.23274,1.67604 -6.33341,4.57506 -17.29861,16.17364 -32.02162,22.64645 -53.437,23.49287 -26.7657,1.05792 -44.82606,-7.60172 -52.60234,-25.22203 -3.57028,-8.08981 -4.07406,-11.51231 -2.74325,-18.636 5.0885,-27.23733 44.47067,-63.28608 83.42318,-76.36199 20.91161,-7.01982 29.3238,-5.83168 39.89309,5.63464 12.93319,14.03089 22.8867,39.51147 18.21675,46.6341 -1.7224,2.62706 -2.15328,2.62706 -3.87782,0 -1.0671,-1.62548 -1.95373,-4.96234 -1.97029,-7.41528 -0.0492,-6.83825 -3.78566,-12.74867 -17.13532,-27.08384 -7.68503,-8.25229 -8.91541,-8.84713 -18.30159,-8.84713 -11.64451,0 -36.66663,10.39965 -51.28576,21.31527 -9.70519,7.24658 -27.58398,24.85428 -27.58398,27.16579 0,0.79803 -1.36012,2.95382 -3.02248,4.79075 -3.43143,3.79168 -7.84357,27.5365 -5.4455,29.30563 0.86459,0.63782 2.51969,2.93289 3.67803,5.10021 4.09708,7.66588 16.17462,11.82201 34.34421,11.8185 19.92869,-0.004 24.54124,-1.00294 36.21426,-7.84376 19.80505,-11.60658 28.59984,-26.19075 28.45354,-47.18406 -0.0763,-11.01044 0.60032,-14.16376 3.49652,-16.28145 1.97546,-1.44446 4.48806,-2.32751 5.58354,-1.96234 2.58593,0.862 5.5203,14.94874 4.21074,20.21407 -0.55783,2.24262 -1.09652,30.6147 -1.19731,63.04909 -0.18718,60.17759 -3.56295,99.23638 -12.76037,147.63438 -1.64752,8.66925 -3.49072,18.73033 -4.09597,22.35786 -0.60525,3.62761 -2.35245,10.72063 -3.88263,15.76228 -3.75628,12.37689 -3.60808,15.98535 0.62335,15.18122 61.66712,-11.71894 130.52135,-15.17987 167.1759,-8.40302 17.80805,3.29241 49.65922,12.66776 53.57941,15.77102 6.06713,4.80282 -2.28017,4.8924 -24.26626,0.26045 -37.1204,-7.82031 -44.75365,-8.50338 -86.6457,-7.75344 -47.24884,0.8458 -90.27498,6.48858 -112.79878,14.7932 -3.52188,1.29855 -6.40342,2.72158 -6.40342,3.16225 0,1.84418 -10.01231,38.22419 -13.77191,50.04066 -5.93912,18.66665 -17.92449,49.32182 -21.95445,56.15309 -1.91783,3.25098 -6.79447,11.84838 -10.83706,19.1053 -4.04258,7.25698 -8.0757,12.74608 -8.96245,12.19803 -0.88681,-0.54799 -1.63423,0.16439 -1.66101,1.58263 -0.0554,2.85962 -19.62046,23.74925 -28.65828,30.59617 -3.17517,2.40547 -8.00138,6.07291 -10.72487,8.14983 -30.1749,23.01083 -72.31965,34.83832 -104.36952,29.29019 z m 49.31086,-14.38234 c 33.98721,-8.39895 72.80956,-37.53465 95.6214,-71.76273 14.08654,-21.13623 28.91053,-57.76954 40.46353,-99.99408 2.29754,-8.39717 4.60702,-16.76342 5.13223,-18.59166 0.82887,-2.88529 0.0838,-3.08547 -5.64591,-1.51626 -3.63044,0.99438 -16.79704,4.53295 -29.2591,7.86353 -12.46204,3.33058 -24.43152,6.80401 -26.59883,7.71877 -2.16732,0.9147 -7.17775,3.0835 -11.13432,4.8195 -3.95658,1.73595 -7.65277,3.15627 -8.21369,3.15627 -2.61937,0 -39.53609,18.43842 -51.71682,25.83049 -29.07406,17.64396 -47.11072,33.34743 -60.00402,52.24215 -3.60487,5.28276 -8.29532,12.17334 -10.42335,15.31237 -2.12797,3.13903 -4.68294,8.90212 -5.67774,12.80684 -0.99475,3.90474 -2.62418,10.20269 -3.6209,13.99549 -2.52264,9.59953 -2.08518,27.24263 0.87912,35.45545 2.87341,7.96111 11.8685,13.99936 23.71717,15.92094 10.45008,1.69475 32.77291,0.13053 46.48123,-3.25707 z"
       id="path12"
       inkscape:connector-curvature="0" />
  </g>
</svg>
