<?xml version="1.0" encoding="UTF-8" standalone="no"?>
<!-- Created with Inkscape (http://www.inkscape.org/) -->

<svg
   xmlns:dc="http://purl.org/dc/elements/1.1/"
   xmlns:cc="http://creativecommons.org/ns#"
   xmlns:rdf="http://www.w3.org/1999/02/22-rdf-syntax-ns#"
   xmlns:svg="http://www.w3.org/2000/svg"
   xmlns="http://www.w3.org/2000/svg"
   xmlns:sodipodi="http://sodipodi.sourceforge.net/DTD/sodipodi-0.dtd"
   xmlns:inkscape="http://www.inkscape.org/namespaces/inkscape"
   version="1.1"
   id="svg2"
   width="258.56"
   height="163.2"
   viewBox="0 0 258.56 163.2"
   sodipodi:docname="original-monigotes-vector1.svg"
   inkscape:version="0.92.3 (2405546, 2018-03-11)">
  <metadata
     id="metadata8">
    <rdf:RDF>
      <cc:Work
         rdf:about="">
        <dc:format>image/svg+xml</dc:format>
        <dc:type
           rdf:resource="http://purl.org/dc/dcmitype/StillImage" />
        <dc:title></dc:title>
      </cc:Work>
    </rdf:RDF>
  </metadata>
  <defs
     id="defs6" />
  <sodipodi:namedview
     pagecolor="#ffffff"
     bordercolor="#666666"
     borderopacity="1"
     objecttolerance="10"
     gridtolerance="10"
     guidetolerance="10"
     inkscape:pageopacity="0"
     inkscape:pageshadow="2"
     inkscape:window-width="1920"
     inkscape:window-height="1025"
     id="namedview4"
     showgrid="false"
     inkscape:zoom="4.0901275"
     inkscape:cx="148.36522"
     inkscape:cy="89.48654"
     inkscape:window-x="0"
     inkscape:window-y="27"
     inkscape:window-maximized="1"
     inkscape:current-layer="svg2" />
  <path
     style="fill:#000000;stroke-width:0.31999999"
     d="m 91.844899,134.48 c 0.01722,-0.84351 1.363264,-1.54146 3.156093,-1.6365 1.855747,-0.0984 4.387242,-1.38889 4.606928,-2.34854 0.09254,-0.40423 0.378998,-1.52696 0.63659,-2.49496 0.25758,-0.968 0.46028,-2.12 0.45045,-2.56 -0.0554,-2.47814 0.1058,-3.2 0.71459,-3.2 0.67453,0 0.67058,0.462 -0.0424,4.96 -0.19529,1.232 -0.37968,2.456 -0.40975,2.72 -0.19984,1.75432 -0.56613,2.56 -1.163854,2.56 -0.349584,0 -0.928864,0.15694 -1.287286,0.34877 -0.358423,0.19182 -1.604061,0.48364 -2.768087,0.64848 -1.164022,0.16485 -2.440237,0.51191 -2.836025,0.77124 -0.805386,0.52771 -1.064442,0.58443 -1.057239,0.23151 z m 42.720511,-0.70296 c -0.10874,-0.34262 -0.17629,-2.25062 -0.1501,-4.24 0.0523,-3.97647 -0.0474,-4.80108 -0.60327,-4.98636 -0.20462,-0.0682 -0.37204,-0.51648 -0.37204,-0.99617 0,-0.91115 -1.60544,-3.83214 -3.21844,-5.85575 -0.51786,-0.64968 -0.94156,-1.27818 -0.94156,-1.39667 0,-0.11849 -0.828,-1.07616 -1.84,-2.12815 -1.012,-1.05199 -1.81111,-2.02216 -1.7758,-2.15593 0.0353,-0.13377 -0.28869,-0.17576 -0.72,-0.0933 -0.43131,0.0824 -0.7842,0.27712 -0.7842,0.43261 0,0.15548 -0.12356,0.28269 -0.27457,0.28269 -0.15101,0 -0.25901,-0.39257 -0.24,-0.87237 0.0479,-1.20895 -0.75958,-1.2805 -2.06403,-0.18287 -0.58516,0.49238 -1.14437,0.86096 -1.24267,0.81907 -0.34089,-0.14529 -1.29873,0.28081 -1.29873,0.57773 0,0.16414 -0.216,0.29844 -0.48,0.29844 -0.264,0 -0.48,0.12836 -0.48,0.28525 0,0.15689 -0.54,0.5154 -1.2,0.79669 -0.66,0.28129 -1.776,0.87194 -2.48,1.31257 -0.704,0.44063 -1.496,0.89952 -1.76,1.01976 -0.264,0.12024 -0.95214,0.57346 -1.52919,1.00716 -1.14919,0.86371 -2.79441,1.83295 -3.67081,2.16259 -0.308,0.11584 -0.56,0.33783 -0.56,0.4933 0,0.15547 -0.13761,0.28268 -0.30579,0.28268 -0.16818,0 -0.83628,0.36 -1.48465,0.8 -1.14245,0.77528 -2.68956,1.07992 -2.68956,0.5296 0,-0.28926 1.31571,-1.57574 1.3936,-1.36265 0.0802,0.2194 1.62427,-0.34362 2.1264,-0.77534 0.264,-0.22699 1.632,-1.01463 3.04,-1.75032 1.408,-0.73569 2.848,-1.59669 3.2,-1.91334 0.352,-0.31665 1.28575,-0.90012 2.07501,-1.29661 0.78925,-0.39648 2.49183,-1.42074 3.78349,-2.27611 1.29166,-0.85538 2.46898,-1.55523 2.61627,-1.55523 0.14729,0 0.83629,-0.3722 1.53111,-0.82712 l 1.26332,-0.82712 0.19146,-3.09288 c 0.16367,-2.64411 0.11495,-3.15092 -0.33577,-3.49288 -0.73816,-0.56005 -1.68247,-0.49799 -2.4347,0.16 -0.35211,0.308 -0.54255,0.3923 -0.4232,0.18733 0.11935,-0.20497 0.0361,-0.43897 -0.185,-0.52 -0.7922,-0.29034 0.35837,-0.99334 1.91946,-1.17278 L 123.68,101.28 123.7584,99.2 c 0.0431,-1.144 -0.0591,-2.295197 -0.22723,-2.558214 -0.47386,-0.741415 -4.53763,-0.66666 -5.38492,0.09906 -0.43729,0.395184 -0.71284,0.467417 -0.86205,0.225984 -0.616,-0.996704 2.89052,-2.435754 5.04728,-2.07137 l 1.2843,0.216983 -0.22392,-2.185572 c -0.12315,-1.202064 -0.28043,-2.242089 -0.34951,-2.311171 -0.0691,-0.06908 -1.24987,-0.106077 -2.62399,-0.08222 -2.27489,0.03949 -3.37826,0.209747 -5.45838,0.842236 -1.00018,0.304119 -0.93466,-0.411632 0.08,-0.873942 0.44,-0.20048 0.8,-0.449392 0.8,-0.553142 0,-0.273031 2.86394,-0.547252 6.8209,-0.653095 0.51631,-0.01382 0.57284,-0.291238 0.50848,-2.495539 -0.0653,-2.236717 -0.0136,-2.48 0.52717,-2.48 0.51314,0 0.59206,0.230701 0.54738,1.6 -0.0287,0.88 0.0202,1.94311 0.10868,2.362467 0.15393,0.729456 0.24676,0.754474 2.14415,0.577898 1.09078,-0.101514 2.30724,-0.281418 2.70324,-0.399789 0.57997,-0.173363 0.72,-0.08958 0.72,0.430797 0,0.774221 -1.07338,1.196224 -3.35736,1.319949 -0.87855,0.04759 -1.72536,0.165638 -1.8818,0.26232 -0.27416,0.169446 -0.0519,4.066451 0.28176,4.939504 0.11765,0.307865 0.69753,0.39663 2.08026,0.318432 1.58392,-0.08958 1.91714,-0.02006 1.91714,0.4 0,0.30752 -0.28451,0.516956 -0.72,0.530019 -0.9092,0.02726 -2.89013,0.280617 -2.98636,0.381936 -0.04,0.04206 -0.12103,1.142499 -0.18016,2.445424 -0.0997,2.196725 -0.0554,2.392215 0.6095,2.688905 0.87146,0.38886 0.94819,1.18214 0.11434,1.18214 -0.77614,0 -0.9875,0.82996 -0.99295,3.89917 -0.003,1.35254 -0.15296,2.84998 -0.33456,3.32764 -0.28319,0.74485 -0.26388,0.81343 0.13569,0.48182 0.37462,-0.3109 0.63868,-0.24187 1.34777,0.35236 1.19629,1.00249 3.63461,3.56862 3.64131,3.83218 0.003,0.11724 0.58142,0.83087 1.28542,1.58584 0.704,0.75497 1.28,1.4696 1.28,1.58806 0,0.11847 0.49407,1.03587 1.09793,2.03869 1.74174,2.89244 2.26386,4.95258 2.24983,8.87718 -0.01,2.8023 0.0645,3.35929 0.41077,3.07189 0.59207,-0.49138 2.87607,-0.43978 6.78797,0.15334 1.84058,0.27907 3.46058,0.4369 3.6,0.35073 0.13943,-0.0862 0.2535,0.004 0.2535,0.2011 0,0.19677 0.13566,0.27393 0.30147,0.17146 0.49118,-0.30358 3.53853,-0.44219 3.53853,-0.16096 0,0.5281 -4.27442,0.69943 -7.77843,0.31178 -4.77441,-0.52819 -5.60184,-0.48996 -6.44017,0.29762 -0.87925,0.826 -1.36209,0.8371 -1.61599,0.0371 z M 17.506158,123.73701 c -0.251011,-0.65412 0.05869,-5.6334 0.388745,-6.25012 0.161543,-0.30184 0.61051,-1.91188 0.997705,-3.57785 0.387195,-1.66597 0.932969,-3.42363 1.212831,-3.9059 0.366938,-0.63233 0.411662,-0.97404 0.160375,-1.22533 -0.523406,-0.5234 -2.66593,-0.92425 -4.192985,-0.78448 -0.983617,0.09 -1.352829,0.006 -1.352829,-0.30823 0,-0.63298 2.750431,-1.12991 4.478768,-0.8092 0.989466,0.1836 1.508667,0.15387 1.662601,-0.0952 0.260353,-0.42126 0.319446,-0.36218 0.833245,0.83306 0.33046,0.76874 0.293132,1.01693 -0.266854,1.77436 -0.358081,0.48433 -0.861815,1.63014 -1.119408,2.54624 -0.257594,0.9161 -0.695796,2.42164 -0.973783,3.34564 -0.277987,0.924 -0.631715,2.256 -0.786063,2.96 -0.317475,1.44804 -0.402216,4.32 -0.127469,4.32 0.423967,0 1.359463,-0.66859 2.756095,-1.96975 0.820745,-0.76464 1.949356,-1.75025 2.508025,-2.19025 0.558669,-0.44 1.326055,-1.04933 1.705303,-1.35407 0.379247,-0.30474 0.83354,-0.66917 1.00954,-0.80985 0.176,-0.14068 1.22,-0.88421 2.32,-1.65229 1.1,-0.76809 2,-1.54366 2,-1.72349 0,-0.17983 0.084,-0.24297 0.186667,-0.1403 0.102666,0.10267 0.442001,-0.0533 0.754075,-0.34667 2.430477,-2.28451 4.278272,-3.92007 5.653895,-5.00448 l 1.612505,-1.27115 -0.108144,-4.80885 C 38.75952,98.643984 38.688272,95.328 38.660672,93.92 c -0.06345,-3.237034 -0.19585,-3.775622 -0.862726,-3.509526 -0.76553,0.305459 -2.01065,0.56023 -2.917946,0.597056 -0.44,0.01786 -0.872,0.121062 -0.96,0.22934 -0.088,0.108279 -0.484,0.297981 -0.88,0.421565 -0.540666,0.168727 -0.72,0.09694 -0.72,-0.288243 0,-0.58841 1.886957,-1.474518 4.431978,-2.081242 l 1.711974,-0.408128 -0.21752,-1.640409 C 38.126794,86.338186 38.003078,85.24 37.971504,84.8 c -0.04717,-0.65736 -0.199517,-0.780374 -0.854454,-0.689936 -0.438378,0.06053 -1.640436,0.09005 -2.671242,0.0656 -2.065456,-0.049 -3.518676,0.597862 -3.201284,1.424973 0.273316,0.712253 -0.44773,0.580781 -0.84058,-0.153267 -0.245482,-0.458688 -0.230543,-0.805613 0.05433,-1.261773 0.468743,-0.750576 1.391663,-1.065587 4.101723,-1.400003 1.63385,-0.201616 2.630202,-0.525652 2.914765,-0.947946 0.196496,-0.291606 0.143158,-1.64304 -0.206851,-5.240954 l -0.190996,-1.963305 -1.827062,0.107206 c -1.004883,0.05896 -2.181862,0.238455 -2.615507,0.398871 -0.440019,0.162774 -1.196958,0.174505 -1.712859,0.02656 -0.508428,-0.145818 -1.720584,-0.34065 -2.69368,-0.43296 -0.973096,-0.09231 -1.850268,-0.248845 -1.949271,-0.347847 -0.496718,-0.496717 1.077935,-0.734909 4.147021,-0.627302 2.197253,0.07704 3.90852,-0.0279 4.812139,-0.295069 L 36.64,73.048224 36.575123,68.952349 c -0.04232,-2.671917 -0.192566,-4.174787 -0.432157,-4.322864 -0.202003,-0.124845 -0.964809,-0.08902 -1.695123,0.07962 -0.730313,0.168633 -5.105637,0.347488 -9.722941,0.397453 -6.753922,0.07309 -8.465391,0.0061 -8.754664,-0.342404 -0.469395,-0.565584 -0.071,-7.184441 0.486757,-8.086915 0.09103,-0.147283 0.251841,-1.475913 0.357363,-2.952505 0.105523,-1.476596 0.267516,-3.548717 0.359983,-4.604717 0.22039,-2.51689 0.266756,-7.586128 0.0877,-9.588026 -0.114804,-1.283533 -0.04209,-1.608726 0.379253,-1.696006 0.330215,-0.06841 0.583388,0.161792 0.690704,0.628022 0.270439,1.174915 -0.01268,12.66105 -0.377028,15.29601 -0.758005,5.481885 -0.999085,7.581785 -0.997083,8.684989 0.002,1.107331 0.06151,1.171971 1.202115,1.306038 3.081349,0.362186 20.185862,-0.187632 22,-0.707181 0.528,-0.151213 1.896,-0.362397 3.04,-0.469302 3.247142,-0.303437 5.247722,-0.544253 7.84,-0.943725 0.704,-0.108486 2.432,-0.263184 3.84,-0.34377 1.408,-0.08059 5.224,-0.452092 8.48,-0.825568 3.256,-0.373475 6.424,-0.728736 7.04,-0.789472 2.115786,-0.208601 4.00375,-0.95246 3.951731,-1.556979 -0.319257,-3.710019 -0.512246,-5.506419 -0.608249,-5.661757 -0.210919,-0.341276 -0.227408,-6.076012 -0.01808,-6.28535 0.67728,-0.677283 1.110377,1.669949 1.17943,6.392077 0.01478,1.012 0.123264,1.840889 0.241034,1.841977 0.117769,9.6e-4 0.233222,0.799072 0.256566,1.773303 0.02858,1.192915 0.225869,1.974006 0.604163,2.392019 0.45569,0.50353 0.486586,0.711232 0.16368,1.10031 -0.218925,0.263786 -0.7068,0.462733 -1.084166,0.4421 -0.377363,-0.02064 -1.763226,0.270243 -3.079687,0.64639 -1.529465,0.437005 -3.320073,0.686726 -4.96,0.691725 -1.411539,0.0043 -3.142432,0.138422 -3.846432,0.298048 -2.101369,0.476464 -3.877443,0.68432 -7.144233,0.836099 -5.695863,0.264637 -7.241101,0.379808 -9.655767,0.71969 -1.32,0.185798 -3.192,0.407683 -4.16,0.493075 -4.452707,0.3928 -5.418697,0.592281 -4.982134,1.028845 0.285446,0.285446 0.432688,1.502163 0.463981,3.834057 0.02522,1.878752 0.114006,3.526211 0.197321,3.661018 0.08332,0.134806 2.349588,0.180403 5.036157,0.101325 4.102858,-0.120765 4.987111,-0.06345 5.524675,0.358121 0.620381,0.486512 0.62184,0.515968 0.0476,0.960864 -0.428992,0.332368 -1.002727,0.398567 -2.08,0.24 C 44.41251,73.679431 40.341681,73.805946 39.302504,74.201041 38.283126,74.588595 38.185677,75.076531 38.4,78.72 l 0.16,2.72 h 1.070557 c 0.588806,0 1.137305,-0.108 1.218886,-0.24 0.21808,-0.352861 1.621331,-0.292422 3.033431,0.130653 1.399964,0.41944 1.666057,1.297273 0.570899,1.883382 -0.535427,0.286554 -0.744192,0.249927 -1.06336,-0.18656 -0.326976,-0.447165 -0.690359,-0.502784 -2.05697,-0.314825 -2.102793,0.289209 -2.566845,0.892572 -2.391968,3.11007 0.185367,2.350486 0.422042,2.643114 2.068317,2.557283 1.604122,-0.08364 2.642086,0.392051 1.899226,0.870391 -0.248039,0.159715 -0.646624,0.215318 -0.885748,0.123558 -0.23912,-0.09176 -0.864179,0.01104 -1.389017,0.228429 C 39.761917,89.963715 39.68,90.130042 39.68,91.539936 c 0,0.848262 0.146349,1.632742 0.325219,1.74329 0.178871,0.110547 0.234467,0.347836 0.123549,0.527312 -0.110922,0.179472 -0.249213,2.318576 -0.307315,4.753564 -0.07627,3.196418 0.0026,4.517018 0.283398,4.750128 0.280051,0.23242 0.975751,-0.18658 2.483367,-1.49568 1.151881,-1.0002 2.576697,-2.17855 3.166259,-2.61855 1.646624,-1.228899 2.428489,-1.902448 4.91167,-4.231206 1.261619,-1.183165 2.465687,-2.155165 2.675709,-2.16 0.210019,-0.0048 0.570019,-0.266685 0.8,-0.581888 C 54.371834,91.911702 55.064,91.304547 55.68,90.87767 c 0.616,-0.426873 1.730192,-1.342713 2.475984,-2.035196 0.745789,-0.692484 2.077789,-1.745152 2.96,-2.339268 C 61.998192,85.909091 62.72,85.282822 62.72,85.111498 62.72,84.940173 62.875078,84.8 63.064614,84.8 c 0.18954,0 0.74681,-0.396 1.238378,-0.88 0.491571,-0.484 1.278403,-1.208186 1.748522,-1.609306 0.470115,-0.401116 0.769366,-0.867465 0.665001,-1.036332 -0.109581,-0.177306 0.04226,-0.218 0.35936,-0.09632 0.336445,0.129107 0.470701,0.08384 0.346653,-0.116871 C 67.233712,80.755661 68.4532,80 69.135056,80 69.631059,80 69.483526,80.805677 68.88,81.392848 67.208438,83.019114 61.297802,87.853389 57.280509,90.88 56.696486,91.32 56.025453,91.870285 55.789325,92.102858 55.553197,92.335427 55.36,92.443136 55.36,92.342208 c 0,-0.100928 -0.54,0.3708 -1.2,1.048282 -0.66,0.677481 -1.664064,1.548777 -2.231251,1.936208 -2.200951,1.503414 -5.541789,4.694912 -6.354122,6.070082 -0.309645,0.52419 -0.898608,1.13269 -1.308809,1.35222 -0.410199,0.21953 -0.745818,0.51881 -0.745818,0.66507 0,0.14626 -0.18775,0.26593 -0.417226,0.26593 -0.229475,0 -0.903632,0.50184 -1.498128,1.11521 -0.594496,0.61336 -1.144659,1.05145 -1.222585,0.97352 -0.07792,-0.0779 -0.625223,0.35623 -1.216218,0.96479 -0.590995,0.60857 -1.168976,1.10648 -1.284403,1.10648 -0.203648,0 -1.00504,0.68426 -5.13144,4.38141 -1.792739,1.60625 -2.984993,2.50071 -4.659611,3.49575 -0.853963,0.50742 -2.712345,2.0133 -4.10065,3.32284 -3.091892,2.91647 -4.571351,4.16 -4.949251,4.16 -0.226608,0 -0.494902,0.216 -0.596208,0.48 -0.227674,0.59331 -0.720826,0.62328 -0.938122,0.057 z M 93.76,123.28676 c -0.99009,-0.3769 -1.559786,-2.0947 -1.819661,-5.48684 -0.141833,-1.85136 -0.09134,-2.33025 0.234253,-2.22172 0.228282,0.0761 0.448355,0.41813 0.48905,0.76008 0.0407,0.34194 0.172483,1.55188 0.292857,2.68873 0.120378,1.13686 0.497338,2.61286 0.837687,3.28 0.340352,0.66715 0.579894,1.20162 0.532316,1.18773 -0.04757,-0.0139 -0.302502,-0.10749 -0.566502,-0.20798 z m 97.049,-3.64576 c -0.40658,-0.40658 -0.17562,-1.33231 0.26453,-1.06028 0.45956,0.28403 0.33323,-0.6684 -0.33012,-2.48872 -0.93054,-2.55355 -1.59391,-5.33004 -1.74223,-7.292 -0.0732,-0.968 -0.36996,-2.768 -0.65952,-4 -0.28955,-1.232 -0.65507,-3.032 -0.81226,-4 -0.15719,-0.968 -0.58361,-2.899034 -0.9476,-4.291187 -0.36399,-1.392154 -0.6618,-2.580154 -0.6618,-2.64 0,-0.05985 -0.216,-0.108813 -0.48,-0.108813 -0.65,0 -0.62763,-1.474874 0.0262,-1.725763 0.27839,-0.106832 0.57551,-0.194237 0.66026,-0.194237 0.0847,0 1.27112,1.044 2.63638,2.32 3.76395,3.517869 4.59225,4.23625 5.63718,4.889088 0.528,0.329875 1.84442,1.290782 2.92538,2.135342 1.08095,0.84457 2.04346,1.53557 2.1389,1.53557 0.0954,0 1.22264,0.78924 2.5049,1.75386 1.28226,0.96463 3.27176,2.14174 4.4211,2.61581 2.50791,1.03444 2.98297,1.41498 2.69695,2.16035 -0.11896,0.31 -0.30425,0.43606 -0.41176,0.28014 -0.25035,-0.3631 -2.40655,-1.37016 -2.93363,-1.37016 -0.22078,0 -0.88302,-0.36733 -1.47164,-0.81628 -0.58861,-0.44896 -1.0702,-0.73128 -1.0702,-0.62739 0,0.1039 -0.18,0.0406 -0.4,-0.14076 -0.22,-0.18131 -1.48,-1.10779 -2.8,-2.05886 -1.32,-0.95106 -2.75433,-2.05796 -3.1874,-2.45979 -0.43306,-0.40182 -1.30833,-1.02901 -1.94504,-1.39376 -0.6367,-0.36473 -2.08238,-1.483336 -3.2126,-2.485771 -5.04065,-4.47072 -4.96118,-4.517683 -3.35462,1.982611 0.41324,1.672 0.92531,4.336 1.13794,5.92 0.40985,3.05322 2.02602,9.8624 2.56238,10.79566 0.17563,0.30561 0.31934,1.13361 0.31934,1.84 0,1.02344 -0.11701,1.28434 -0.576,1.28434 -0.3168,0 -0.73755,-0.16155 -0.935,-0.359 z M 83.264,118.976 c -0.2112,-0.2112 -0.384,-0.8304 -0.384,-1.376 0,-0.5456 0.1728,-1.1648 0.384,-1.376 0.2112,-0.2112 0.272915,-0.384 0.137142,-0.384 -0.135769,0 -0.03165,-0.21522 0.231418,-0.47827 0.26305,-0.26305 0.745747,-0.80305 1.072659,-1.2 0.326912,-0.39695 0.893328,-0.97736 1.258701,-1.2898 0.627043,-0.5362 0.689331,-0.53725 1.110198,-0.0186 0.245236,0.30222 0.279008,0.44947 0.07505,0.32721 -0.319546,-0.19154 -0.860278,0.32432 -2.284486,2.17943 -0.511226,0.6659 -1.383303,3.35863 -1.189367,3.67242 0.273914,0.44321 0.0588,0.4137 -0.411315,-0.0564 z M 187.6,118.52796 c -0.924,-0.44931 -1.68,-0.94991 -1.68,-1.11244 0,-0.16254 -0.36,-0.29552 -0.8,-0.29552 -0.65245,0 -0.8,0.15669 -0.8,0.8496 0,0.82932 -0.0153,0.83577 -0.64,0.2704 -1.19436,-1.08088 -0.70816,-2.20569 0.92612,-2.14256 1.03868,0.0401 5.65671,2.34678 5.57078,2.78256 -0.11434,0.57988 -0.87378,0.47613 -2.5769,-0.35204 z m 50.5733,-5.89017 c 0.0924,-0.35322 -0.0232,-1.39722 -0.25688,-2.32 -0.85209,-3.36516 -1.4663,-5.53205 -1.74544,-6.15779 -0.29817,-0.66839 -0.71602,-4.06281 -1.29991,-10.56 -0.1898,-2.112 -0.42719,-4.117363 -0.52753,-4.456362 -0.273,-0.922288 -0.16553,-3.449644 0.16054,-3.775721 0.387,-0.386999 0.93597,2.690633 1.18299,6.632083 0.1103,1.76 0.32939,4.208 0.48686,5.44 0.15747,1.232 0.29075,2.500499 0.29619,2.81889 0.005,0.31838 0.11788,0.51312 0.24988,0.43274 0.132,-0.0804 0.28396,0.78176 0.33769,1.91586 0.0537,1.1341 0.35614,2.66737 0.67202,3.40726 0.31587,0.73989 0.77139,2.11785 1.01225,3.06214 0.24087,0.94428 0.62878,1.79011 0.86203,1.87962 0.23326,0.0895 1.17378,-0.009 2.09005,-0.21921 3.54303,-0.81232 3.81219,-0.8129 3.69322,-0.008 -0.0856,0.57916 -0.35026,0.75025 -1.31103,0.84755 -0.66207,0.0671 -1.59807,0.28691 -2.08,0.48858 -0.48193,0.20166 -1.19246,0.40423 -1.57896,0.45014 -0.38651,0.0459 -0.98904,0.23671 -1.33897,0.42398 -0.91082,0.48746 -1.09529,0.42596 -0.905,-0.30171 z M 74.8,111.97437 c -0.308,-0.17939 -0.56,-0.4825 -0.56,-0.67358 0,-0.41517 1.504422,-1.86079 1.936486,-1.86079 0.166932,0 0.303514,-0.168 0.303514,-0.37333 0,-0.20534 0.09508,-0.27825 0.211299,-0.16204 0.116211,0.11621 0.400976,-0.0595 0.63281,-0.39049 0.23183,-0.33099 1.282848,-1.05007 2.335593,-1.59797 2.171972,-1.13039 4.15753,-1.31855 4.861117,-0.46068 0.39353,0.47983 0.358032,0.51456 -0.341475,0.3341 -0.495754,-0.1279 -1.546822,0.10241 -2.88,0.63105 -2.428934,0.96315 -6.221792,3.7987 -5.967514,4.46134 0.197415,0.51446 0.193879,0.51507 -0.53183,0.0924 z m 15.76,-1.62753 c 0,-0.20523 0.211725,-0.60123 0.470499,-0.88 1.10488,-1.19023 2.704653,-2.791 4.649501,-4.65241 1.144,-1.09493 2.231862,-2.1941 2.417472,-2.4426 0.185606,-0.24851 1.337606,-1.62455 2.559998,-3.057872 2.95081,-3.459993 4.51339,-5.637248 5.52269,-7.695168 0.81103,-1.65366 1.65984,-2.246771 1.65984,-1.15982 0,0.51448 -1.13703,3.107529 -1.65795,3.78103 -0.13613,0.176 -0.79078,0.996682 -1.45478,1.823738 -0.664,0.827052 -1.74273,2.195052 -2.39717,3.04 -0.65445,0.844944 -1.59045,1.981772 -2.08,2.526292 -0.489556,0.54451 -1.4661,1.66401 -2.1701,2.48778 -0.704,0.82377 -2.194739,2.22827 -3.312755,3.12111 -1.118016,0.89285 -2.270016,2.04044 -2.56,2.5502 -0.517351,0.90944 -1.647245,1.292 -1.647245,0.55772 z m 120.0049,-0.16795 c -0.003,-0.20962 0.13281,-0.46623 0.30113,-0.57025 0.16831,-0.10403 0.23734,-0.3681 0.1534,-0.58684 -0.0839,-0.21874 -0.20539,-1.61813 -0.26989,-3.10976 -0.0645,-1.49162 -0.20554,-3.03604 -0.31341,-3.43204 -0.35373,-1.29856 -0.5243,-2.14334 -0.66225,-3.28 -0.20759,-1.710506 -0.5256,-4.819834 -0.63096,-6.169082 -0.11888,-1.5223 -0.22852,-1.62222 -1.26292,-1.150918 -0.46349,0.211178 -0.91748,0.309181 -1.00888,0.217782 -0.33812,-0.338121 0.28028,-1.275977 1.02908,-1.560668 0.75165,-0.28578 0.7673,-0.361988 0.56879,-2.77065 -0.11227,-1.362234 -0.26386,-2.573446 -0.33687,-2.691584 -0.15546,-0.25153 -1.41601,0.01648 -1.92156,0.408563 -0.1922,0.149053 -0.43082,0.189635 -0.53027,0.09019 -0.0995,-0.09945 -0.61216,0.04224 -1.13935,0.314861 -0.87264,0.451257 -0.97635,0.449267 -1.15727,-0.02221 -0.10931,-0.284836 -0.15934,-0.536615 -0.1112,-0.559508 0.0481,-0.02288 0.71314,-0.362284 1.47777,-0.754198 0.76463,-0.391917 1.57031,-0.712576 1.7904,-0.712576 0.92297,0 1.38522,-1.09624 1.30145,-3.08639 -0.0455,-1.081514 -0.18833,-2.137175 -0.31733,-2.345914 -0.221,-0.357581 -2.16734,-0.281686 -4.36798,0.170326 -0.41623,0.08549 -1.35392,0.20673 -2.08375,0.269415 -0.72984,0.06268 -1.44984,0.183741 -1.6,0.269021 -0.87725,0.498201 -1.97885,0.526304 -2.15967,0.05509 -0.10635,-0.277142 -0.19336,-0.545661 -0.19336,-0.596704 0,-0.05105 0.58265,-0.07753 1.29478,-0.05886 0.71213,0.01869 1.39613,-0.124377 1.52,-0.317888 0.30109,-0.470365 1.54144,-0.841945 3.10522,-0.930253 0.704,-0.03975 1.90633,-0.242694 2.67185,-0.450976 1.21126,-0.329555 1.3664,-0.469401 1.19567,-1.077782 -0.1079,-0.384499 -0.28581,-1.311088 -0.39535,-2.059088 -0.10954,-0.748 -0.33209,-1.36 -0.49455,-1.36 -0.16246,0 -0.21259,-0.133971 -0.1114,-0.297712 0.1012,-0.163741 -0.1207,-1.22591 -0.49312,-2.360371 l -0.67713,-2.062663 -1.48798,0.106858 c -0.8184,0.05877 -3.77553,0.260512 -6.5714,0.448317 -2.79588,0.187801 -5.17188,0.394425 -5.28,0.459161 -0.42467,0.25426 -3.46942,0.601815 -4.75659,0.542957 -0.748,-0.0342 -1.36,-9.6e-4 -1.36,0.07406 0,0.07493 0.21511,0.548697 0.47803,1.052816 0.92042,1.764832 0.37044,2.820617 -0.65448,1.256387 -0.7875,-1.201878 -2.46805,-2.346627 -3.81628,-2.599558 -0.9289,-0.174263 -1.16156,-0.134624 -0.97563,0.16622 0.16693,0.270103 0.055,0.358634 -0.35374,0.279911 -1.03159,-0.198666 -0.72677,-1.312304 0.4421,-1.615187 1.18948,-0.308228 1.26204,-0.520144 0.48,-1.401981 -1.03317,-1.165024 -2.53261,-3.162627 -2.91932,-3.889213 -0.21092,-0.396301 -0.70184,-0.731357 -1.09194,-0.745264 -0.38981,-0.01389 -0.52507,-0.09912 -0.30059,-0.189386 0.26292,-0.105718 -0.0476,-0.56359 -0.8725,-1.286697 -0.70437,-0.617415 -1.4841,-1.530375 -1.73275,-2.028797 -0.42063,-0.843184 -0.38539,-1.014662 0.50667,-2.465258 0.52732,-0.857472 1.45598,-1.89974 2.06369,-2.316153 0.60772,-0.416413 1.63634,-1.248023 2.28584,-1.848023 0.6495,-0.599996 1.82112,-1.619545 2.6036,-2.265664 0.78249,-0.646118 1.95195,-1.642758 2.59879,-2.214758 0.64684,-0.572 1.2819,-1.04 1.41125,-1.04 0.12934,0 0.77574,-0.428144 1.43644,-0.951434 0.66071,-0.523289 1.29343,-0.859289 1.40605,-0.746665 0.67462,0.674611 -0.42055,3.298099 -1.37678,3.298099 -0.33281,0 -0.65312,-0.14359 -0.71178,-0.319088 -0.0587,-0.175498 -0.49471,0.0045 -0.96898,0.4 -0.47428,0.395498 -1.3295,1.079088 -1.90051,1.519088 -2.2029,1.697482 -6.82271,5.627251 -7.68878,6.540339 -0.67062,0.707021 -0.73059,1.014016 -0.25543,1.307674 0.18313,0.113181 0.70964,0.802473 1.17002,1.531763 0.46037,0.729286 1.01131,1.50024 1.2243,1.713229 0.21299,0.212985 1.19649,1.584192 2.18556,3.047123 3.0453,4.504304 2.68553,4.258195 6.24326,4.270787 1.69614,0.006 3.6969,-0.09784 4.44614,-0.230755 0.74923,-0.132918 3.34123,-0.305632 5.76,-0.383811 2.41876,-0.07818 5.04575,-0.290871 5.83775,-0.47265 0.792,-0.181779 3.024,-0.414557 4.96,-0.517286 5.62238,-0.298333 9.44171,-0.835917 11.71872,-1.64944 2.46241,-0.87977 3.25248,-0.938234 3.7979,-0.281047 0.5853,0.705242 0.16809,1.554743 -0.56966,1.159908 -0.56897,-0.304503 -4.14464,0.414787 -5.10696,1.027328 -0.22,0.140035 -0.51958,0.180704 -0.66574,0.09037 -0.14615,-0.09033 -1.04615,0.04346 -2,0.297315 -0.95384,0.253853 -2.52626,0.464848 -3.49426,0.468874 -0.968,0.004 -2.31797,0.09949 -2.99993,0.212147 l -1.23993,0.204826 0.16333,2.034764 c 0.0898,1.11912 0.30225,2.213364 0.47203,2.431652 0.16978,0.218288 0.49349,1.294803 0.71934,2.392256 0.43888,2.132585 0.47882,2.155539 2.56516,1.474486 0.264,-0.08618 1.22029,-0.21895 2.12508,-0.295046 1.2977,-0.109146 1.68646,-0.03053 1.84104,0.372291 0.26448,0.689235 -0.0382,1.106534 -0.63625,0.877059 -0.2693,-0.103341 -1.54704,-0.007 -2.83942,0.214051 -2.32352,0.397453 -2.35117,0.41377 -2.47324,1.459421 -0.0679,0.58161 -0.0257,0.997046 0.0938,0.923187 0.11951,-0.07386 0.317,0.530656 0.43887,1.34336 0.32366,2.158301 0.41642,2.287117 1.81745,2.523821 1.17684,0.198826 1.90129,0.870032 1.43852,1.332794 -0.10625,0.106256 -0.73604,0.208048 -1.39953,0.226201 -1.20291,0.03291 -1.20611,0.03665 -1.12451,1.313005 0.19434,3.040115 0.31373,3.289482 1.68602,3.521325 2.08478,0.352224 1.98881,1.422505 -0.12856,1.433776 -0.91038,0.0048 -0.91865,0.02195 -0.73687,1.524899 0.10111,0.836 0.41789,2.6 0.70395,3.92 0.28606,1.32 0.51921,2.798592 0.51811,3.28576 -9.6e-4,0.487173 0.12318,0.808393 0.27619,0.713823 0.15735,-0.0972 0.15837,0.24589 0.002,0.78993 -0.17378,0.60595 -0.15585,1.03602 0.0485,1.16229 0.17836,0.11024 0.25318,0.47238 0.16627,0.80476 -0.0981,0.37512 -0.0289,0.52449 0.18252,0.39384 0.21672,-0.13394 0.27692,0.0329 0.16552,0.4589 -0.23583,0.90184 0.66985,1.23647 1.22015,0.45081 0.22891,-0.32682 0.89273,-1.17274 1.47515,-1.87982 0.58241,-0.70708 1.49093,-1.84254 2.01893,-2.52325 2.31474,-2.984192 5.71612,-6.918531 8.35161,-9.660214 4.50347,-4.684928 6.68722,-7.142986 6.70294,-7.544893 0.008,-0.204566 0.19201,-0.334602 0.4089,-0.288966 0.2169,0.04563 0.47776,-0.134368 0.57969,-0.4 0.27916,-0.727456 0.66347,-0.581255 0.83533,0.317776 0.13009,0.680524 -0.46485,1.422675 -3.9627,4.9432 -2.26357,2.278348 -4.11567,4.374512 -4.11567,4.65814 0,0.283626 -0.12792,0.436628 -0.28426,0.340004 -0.31236,-0.19305 -4.16557,3.758419 -5.04333,5.171945 -0.3026,0.48728 -1.21522,1.677965 -2.02806,2.645968 -0.81284,0.968 -1.90149,2.336 -2.41923,3.04 -0.51773,0.704 -1.12219,1.39516 -1.34323,1.5359 -0.22104,0.14075 -0.40189,0.42087 -0.40189,0.62249 0,0.20163 -0.34204,0.73447 -0.76008,1.1841 -0.41804,0.44963 -0.89426,1.23818 -1.05827,1.75234 -0.20525,0.64343 -0.5261,0.95161 -1.02933,0.98868 -0.40212,0.0296 -0.85969,0.25696 -1.01682,0.50518 -0.18299,0.28907 -0.28746,0.3143 -0.2906,0.0702 z m 2.72357,-4.51709 c -0.0985,-0.0985 -0.35674,-2e-4 -0.5738,0.21849 -0.31369,0.31604 -0.27693,0.35279 0.17913,0.17914 0.31559,-0.12017 0.49319,-0.2991 0.39467,-0.39763 z M 69.763402,100.4821 c -0.295757,-0.18278 -0.308679,-0.39937 -0.05036,-0.843994 C 69.904166,99.309149 70.064918,99.22 70.070269,99.44 c 0.0053,0.22 0.196803,0.4 0.425446,0.4 0.62896,0 1.180336,-1.880816 1.373363,-4.684733 0.09524,-1.383398 0.392426,-3.811267 0.660423,-5.395267 0.267997,-1.584 0.683017,-4.176 0.922272,-5.76 0.239254,-1.584 0.603158,-3.787325 0.808675,-4.896275 0.41376,-2.232595 0.273328,-2.668781 -0.603683,-1.875098 -0.322938,0.292256 -0.666023,0.531373 -0.76241,0.531373 -0.09639,0 -0.792515,0.581338 -1.546947,1.291859 -0.935731,0.881271 -1.475818,1.187731 -1.699312,0.964237 -0.42495,-0.42495 0.495149,-1.416445 3.761789,-4.053667 3.722249,-3.00505 4.57232,-2.698096 2.740073,0.989424 -0.623747,1.255328 -0.952579,2.409142 -0.957593,3.36 -0.0042,0.79648 -0.144714,2.024147 -0.312259,2.728147 -0.766356,3.220118 -1.577527,8.95775 -1.730455,12.24 -0.09226,1.98 -0.127616,3.6 -0.07858,3.6 0.04903,0 0.863318,-0.373469 1.80952,-0.829933 0.946205,-0.456464 2.233155,-0.908445 2.859891,-1.004403 0.626736,-0.09596 1.35552,-0.33449 1.61952,-0.530067 0.41553,-0.307837 0.421805,-0.281335 0.04671,0.197302 -0.23831,0.304096 -1.788864,1.266541 -3.445676,2.138768 -2.923997,1.539333 -5.32361,2.170613 -6.197632,1.630433 z M 108.56,88.42807 c -1.14269,-0.461088 0.70086,-1.752243 3.2218,-2.256432 0.54178,-0.108355 1.47132,-0.526998 2.06564,-0.930316 0.59433,-0.403322 1.85859,-1.024394 2.80947,-1.380164 0.95088,-0.355772 1.98407,-0.781968 2.29598,-0.947107 0.99242,-0.525424 5.18373,-2.279641 5.84711,-2.447225 1.90365,-0.480909 5.55405,-2.250285 8.88081,-4.304592 0.83555,-0.515962 2.74319,-1.543924 4.23919,-2.284356 7.65354,-3.78806 9.09973,-4.426144 9.38505,-4.140825 0.42572,0.425715 0.0149,1.302947 -0.61021,1.302947 -0.28889,0 -1.33741,0.420221 -2.33005,0.933824 -0.99263,0.513606 -3.02879,1.528586 -4.52479,2.255514 -1.496,0.726931 -4.80596,2.382217 -7.35547,3.678416 -2.54951,1.296201 -4.7292,2.298806 -4.84374,2.228009 -0.11455,-0.07079 -0.38622,0.0857 -0.60371,0.34776 -0.2175,0.262061 -0.63701,0.476477 -0.93226,0.476477 -0.29525,0 -0.67362,0.120461 -0.84082,0.267693 -0.1672,0.147229 -1.096,0.597091 -2.064,0.999693 -1.9274,0.801622 -2.88166,1.221539 -7.22936,3.181238 -1.60014,0.721258 -3.11214,1.315955 -3.36,1.321552 -0.4954,0.0112 -1.57064,0.740339 -1.57064,1.065101 0,0.112598 0.216,0.204723 0.48,0.204723 0.264,0 0.48,0.144 0.48,0.32 0,0.322739 -2.69795,0.407494 -3.44,0.10807 z m 16.72,-11.28271 c -1.98562,-0.502384 -3.82286,-2.08161 -5.05533,-4.34536 -1.42574,-2.618752 -1.24269,-5.442093 0.48807,-7.527763 1.54779,-1.865181 2.86163,-2.156823 6.80726,-1.511056 0.352,0.05761 0.604,0.278915 0.56,0.491782 -0.044,0.212871 0.19037,0.387037 0.52082,0.387037 0.8168,0 1.35525,0.723242 1.38769,1.863907 0.0172,0.606848 0.35961,1.262243 0.95085,1.820279 1.195,1.127894 1.93767,2.916604 1.68625,4.061315 -0.10805,0.491974 -0.31341,0.894499 -0.45635,0.894499 -0.14293,0 -0.35713,0.387469 -0.47599,0.86104 -0.53046,2.113555 -3.82818,3.658381 -6.41327,3.00432 z m 4.19747,-1.824237 c 0.78729,-0.461385 1.35979,-0.910528 1.27222,-0.998096 -0.0876,-0.08757 0.0497,-0.368144 0.30507,-0.623497 1.13783,-1.137831 0.92457,-2.5177 -0.73941,-4.784359 -0.77428,-1.054713 -2.30576,-1.600659 -2.70963,-0.965933 -0.17006,0.267261 -0.23729,0.253824 -0.24082,-0.04812 -0.003,-0.230388 -0.14992,-0.329258 -0.32716,-0.219716 -0.46914,0.289946 -0.78818,-0.778953 -0.36023,-1.206908 0.26999,-0.269988 0.46048,-0.264496 0.74649,0.0215 0.49288,0.492876 1.0054,0.499894 0.70239,0.0096 -0.15742,-0.254714 -0.0541,-0.306362 0.32317,-0.161581 0.43747,0.167875 0.53299,0.06276 0.45249,-0.497946 -0.0814,-0.566774 -0.39374,-0.762041 -1.54205,-0.963993 -4.02669,-0.70816 -4.88941,-0.502746 -6.23861,1.485414 -1.08025,1.591837 -1.05561,3.35455 0.0786,5.624342 1.08003,2.161341 2.04748,3.065517 3.92,3.663616 2.06831,0.66064 2.74874,0.608429 4.35747,-0.334348 z m 19.6921,-8.410486 c -0.33532,-0.207239 -0.29317,-0.777101 0.21772,-2.943811 1.08225,-4.589831 1.76497,-10.874336 1.26691,-11.662106 -0.11658,-0.184403 -0.0797,-0.544403 0.082,-0.8 0.1617,-0.255597 0.2962,-0.78872 0.29889,-1.18472 0.003,-0.396 0.19058,-0.72 0.41753,-0.72 0.32006,0 0.3977,0.987094 0.34607,4.4 -0.0366,2.42 -0.13454,4.688 -0.21763,5.04 -0.0831,0.352 -0.33827,2.118512 -0.56705,3.925581 -0.42214,3.334374 -0.96249,4.490134 -1.84445,3.945056 z M 178.72,64.64 c 0.10877,-0.176 0.26127,-0.32 0.33889,-0.32 0.0776,0 0.14111,0.144 0.14111,0.32 0,0.176 -0.1525,0.32 -0.33889,0.32 -0.18638,0 -0.24988,-0.144 -0.14111,-0.32 z m 23.24961,-0.727677 c -2.43889,-0.780019 -3.56662,-3.061536 -3.0933,-6.258057 0.24459,-1.651805 1.37629,-4.534266 1.78022,-4.534266 0.14175,0 0.71883,-0.71161 1.28241,-1.581354 0.99972,-1.542832 1.06263,-1.581059 2.58287,-1.569283 0.857,0.0066 1.55819,0.142247 1.55819,0.301354 0,0.159107 -0.17226,0.289283 -0.3828,0.289283 -0.46286,0 -2.82303,1.570166 -3.36702,2.24 -0.2144,0.264 -0.39661,0.768 -0.4049,1.12 -0.0111,0.471328 -0.086,0.528144 -0.28416,0.215574 -0.41818,-0.659603 -1.7069,1.748823 -1.88695,3.526448 -0.25008,2.468896 0.11429,3.637152 1.36445,4.374765 2.15163,1.269488 6.14764,0.175245 9.19093,-2.516787 1.00019,-0.884749 1.32788,-1.452186 1.56012,-2.701501 0.27007,-1.45287 0.22226,-1.684253 -0.58785,-2.844825 -0.485,-0.694829 -1.03867,-1.530301 -1.23038,-1.856602 -0.19171,-0.326304 -0.41754,-0.52431 -0.50183,-0.440013 -0.0843,0.08429 -0.70474,-0.127894 -1.37877,-0.471533 -0.67402,-0.343635 -1.3482,-0.54896 -1.49817,-0.456275 -0.14997,0.09268 -0.27267,0.01603 -0.27267,-0.170365 0,-0.445363 0.21649,-0.43016 2.18062,0.153127 1.38867,0.412387 1.87053,0.775117 2.97759,2.241405 1.23421,1.6347 1.31155,1.859452 1.17958,3.42799 -0.24556,2.918566 -0.98921,3.828246 -5.05779,6.186931 -1.2614,0.731274 -4.02745,1.778131 -4.48,1.69553 -0.088,-0.01606 -0.64168,-0.183258 -1.23039,-0.371546 z M 176.8,62.4 c -0.10877,-0.176 -0.0453,-0.32 0.14111,-0.32 0.18639,0 0.33889,0.144 0.33889,0.32 0,0.176 -0.0635,0.32 -0.14111,0.32 -0.0776,0 -0.23012,-0.144 -0.33889,-0.32 z m 47.10237,-0.524291 c -0.22493,-0.224935 1.05724,-1.701338 1.48519,-1.710179 0.82992,-0.01715 12.05244,-11.506509 12.05244,-12.339005 0,-0.647395 -3.33499,-5.488195 -3.69771,-5.36729 -0.34346,0.11449 -1.47025,-1.241337 -1.82488,-2.19584 -0.11134,-0.299677 0.007,-0.708214 0.26895,-0.925273 0.38484,-0.319383 0.71339,-0.138151 1.84299,1.016601 0.75607,0.772903 1.64781,1.873277 1.98165,2.445277 0.33384,0.572 0.71994,1.04 0.858,1.04 0.13805,0 0.251,0.221066 0.251,0.491258 0,0.896035 1.00785,2.068742 1.77792,2.068742 0.40937,0 0.83476,-0.146349 0.94531,-0.325219 0.11054,-0.178871 0.33504,-0.242375 0.49888,-0.141114 0.65758,0.406407 0.22244,1.341459 -1.18738,2.551517 -0.8169,0.701149 -2.3649,2.195376 -3.44,3.320502 -3.80429,3.981316 -6.78064,6.840327 -8.89765,8.546877 -2.12329,1.711623 -2.51929,1.918557 -2.91471,1.523146 z m 9.4363,-20.985043 c -0.22962,-0.22962 -0.37867,-0.248512 -0.37867,-0.048 0,0.427129 0.37844,0.805564 0.592,0.592 0.0909,-0.09093 -0.005,-0.335732 -0.21333,-0.544 z M 149.12,60.19777 c 0,-0.176 0.144,-0.408996 0.32,-0.51777 0.176,-0.108774 0.32,-0.05377 0.32,0.12223 0,0.176 -0.144,0.408996 -0.32,0.51777 -0.176,0.108774 -0.32,0.05377 -0.32,-0.12223 z M 34.307805,54.043245 c -2.469631,-1.227789 -3.119026,-3.717024 -1.815306,-6.958349 1.943015,-4.830739 2.624109,-5.525453 5.84344,-5.960272 1.721645,-0.232538 3.584061,0.218736 3.584061,0.868435 0,0.173479 0.228032,0.227911 0.506739,0.12096 0.324339,-0.124461 0.454487,-0.0504 0.361568,0.205763 -0.07984,0.220119 0.05104,0.883207 0.290851,1.47353 0.401338,0.987936 0.391671,1.05465 -0.121568,0.83871 -0.306675,-0.12903 -0.84559,-0.264524 -1.19759,-0.3011 -0.374045,-0.03887 -0.65911,-0.320909 -0.685984,-0.678711 -0.02528,-0.336717 -0.06129,-0.792211 -0.08,-1.012211 -0.04992,-0.586979 -2.922371,-0.506416 -4.172064,0.117011 -0.570006,0.284359 -1.311594,0.968359 -1.647968,1.52 -0.671562,1.101338 -0.789309,1.629117 -0.295344,1.323831 0.175251,-0.108311 0.491152,0.181699 0.702003,0.644467 0.349834,0.767798 0.29792,0.908272 -0.593475,1.605894 -0.742688,0.581239 -1.02431,1.110781 -1.174854,2.209117 -0.251031,1.831472 -0.06774,2.285293 1.172992,2.90425 1.01168,0.504691 3.987385,0.663942 5.814694,0.31118 0.896378,-0.173043 0.917584,-0.155699 0.32,0.261719 -0.759808,0.530733 -2.004403,0.857926 -3.988438,1.048525 -1.053136,0.101171 -1.828202,-0.0478 -2.823757,-0.542749 z M 42.56,52.857322 c 0,-0.187405 0.308058,-0.862858 0.68457,-1.500999 0.586809,-0.994566 0.657923,-1.478121 0.497968,-3.386073 -0.19864,-2.36936 0.160704,-2.706295 0.72383,-0.678688 0.440666,1.586678 0.412342,3.25775 -0.07109,4.193881 C 43.948131,52.351331 42.56,53.388963 42.56,52.857322 Z m 16.96,-3.152509 c -3.400912,-0.626544 -3.788522,-1.049843 -2.35176,-2.568327 0.779709,-0.824057 0.834083,-0.839267 0.673034,-0.188252 -0.09636,0.389529 -0.01008,0.843449 0.19176,1.008713 0.778924,0.637795 3.357046,1.065783 6.200566,1.029335 2.294,-0.02941 2.9664,0.05978 2.9664,0.393456 0,0.333939 -0.777626,0.436108 -3.44,0.451964 -1.892,0.01126 -3.8,-0.04583 -4.24,-0.126889 z m 86.73097,-2.104867 c -1.42383,-2.978445 -1.46309,-3.084628 -0.85787,-2.319946 0.66462,0.839722 0.67686,0.196499 0.0143,-0.749491 -0.28195,-0.402544 -0.43657,-0.807965 -0.34359,-0.900941 0.30543,-0.305427 1.95469,3.181322 2.36998,5.010432 0.0999,0.44 0.34017,0.905795 0.53394,1.035101 0.22854,0.152509 0.18369,0.2368 -0.12769,0.239945 -0.28271,0.0029 -0.93582,-0.948678 -1.58903,-2.3151 z m -78.6785,1.682646 c 0.06794,-0.203827 0.247831,-0.347494 0.399754,-0.319261 0.15192,0.02822 0.383667,-0.122518 0.514989,-0.335001 0.131321,-0.212487 0.435424,-0.319997 0.675779,-0.238916 0.271334,0.09153 0.02928,0.359028 -0.638522,0.705594 -0.640809,0.332563 -1.0256,0.408384 -0.952,0.187584 z M 156.48,46.309987 c 0,-0.480688 2.18864,-4.058537 2.50467,-4.09447 0.11843,-0.01347 0.45736,-0.07126 0.75317,-0.128435 0.35126,-0.06789 0.47839,0.05098 0.36647,0.342646 -0.0942,0.245629 -0.32475,0.351802 -0.51222,0.235939 -0.21582,-0.133382 -0.26356,-0.0092 -0.13013,0.338458 0.11589,0.302013 0.10018,0.480803 -0.0349,0.397309 -0.13509,-0.08349 -0.74545,0.623209 -1.35633,1.570451 -1.1044,1.712477 -1.59071,2.121561 -1.59071,1.338102 z m 35.65325,-0.913273 c -0.54339,-0.879216 4.65399,-1.904743 6.26704,-1.236592 1.61107,0.667324 1.17713,1.163852 -1.04029,1.190348 -1.1,0.01315 -2.69763,0.07487 -3.55028,0.137168 -0.85265,0.0623 -1.60706,0.02138 -1.67647,-0.09092 z M 69.184,44.096 C 68.9728,43.8848 68.8,43.4528 68.8,43.136 68.8,42.8192 68.684342,42.56 68.542979,42.56 67.860387,42.56 65.28,31.857251 65.28,29.026032 c 0,-1.90239 1.46416,1.109307 1.756957,3.613968 0.295808,2.5304 1.533286,7.292669 2.972688,11.44 0.176566,0.508736 -0.323223,0.518422 -0.825645,0.016 z m 119.10406,-1.408166 c 0.39039,-1.017338 1.67477,-2.306 3.9084,-3.921428 2.40495,-1.739337 3.00594,-1.934668 3.63191,-1.180422 0.48647,0.586166 0.16834,1.134016 -0.65851,1.134016 -0.79442,0 -2.00889,0.774899 -3.63432,2.31889 -0.69546,0.660611 -1.43382,1.20111 -1.64082,1.20111 -0.207,0 -0.55562,0.216 -0.77472,0.48 -0.52781,0.635971 -1.08013,0.614614 -0.83194,-0.03217 z M 149.53249,41.84 c 0.0969,-0.572 0.43493,-1.616 0.75112,-2.32 0.56542,-1.258931 0.57675,-1.265338 0.68795,-0.389107 0.12889,1.015696 -0.81666,3.749107 -1.2969,3.749107 -0.18204,0 -0.24292,-0.445414 -0.14217,-1.04 z m 37.51926,0.0026 c -0.40004,-0.935926 0.83951,-6.96256 1.43203,-6.96256 0.44724,0 0.9619,1.142928 0.66238,1.470976 -0.23745,0.260067 -0.67166,1.635971 -1.5555,4.929024 -0.23824,0.887667 -0.35004,1.004349 -0.53891,0.562486 z m -3.0787,-1.486192 c -1.27685,-0.797187 -3.1609,-2.677075 -2.9786,-2.972032 0.0898,-0.145344 0.0154,-0.264262 -0.16552,-0.264262 -0.18087,0 -0.23731,-0.238532 -0.12544,-0.530071 0.17341,-0.451894 0.31419,-0.401283 0.95453,0.343159 0.41312,0.480278 0.65482,1.029059 0.53711,1.219513 -0.12094,0.19569 -0.066,0.254826 0.12626,0.135984 0.18715,-0.115667 0.7134,0.233133 1.16944,0.775107 0.45604,0.541978 0.83355,0.866362 0.8389,0.720861 0.005,-0.145504 0.16255,-0.0016 0.34933,0.319447 0.46268,0.795654 0.27291,0.863468 -0.70601,0.252294 z M 24.933354,39.983533 c -0.217424,-0.134378 -0.60298,-0.164631 -0.856791,-0.06724 -0.319012,0.122416 -0.426161,-0.0063 -0.347085,-0.41689 0.08451,-0.438854 0.58747,-0.688746 1.925854,-0.956851 0.996306,-0.199581 2.221272,-0.532621 2.722146,-0.74009 1.200867,-0.497417 3.37367,-0.61151 3.519168,-0.184793 0.06332,0.185721 -0.787514,0.602512 -1.890754,0.926201 -1.103241,0.323692 -2.149892,0.674572 -2.325892,0.77974 -0.848729,0.507139 -2.393364,0.878262 -2.746646,0.659923 z M 73.2,39.748038 c -0.467066,-0.09587 -0.56,-0.475545 -0.56,-2.287811 0,-1.195075 0.151386,-2.948515 0.33641,-3.896537 0.185024,-0.948023 0.340544,-3.119606 0.3456,-4.825741 0.0064,-2.166509 0.136339,-3.207588 0.430784,-3.451955 0.337705,-0.280271 0.46608,0.03343 0.64518,1.576576 0.122976,1.059557 0.141543,2.612937 0.04126,3.451955 -0.238016,1.991405 -0.598048,6.02616 -0.664377,7.445488 -0.03152,0.674579 0.146006,1.288515 0.4464,1.543731 0.274307,0.23305 0.33104,0.340154 0.126073,0.238006 -0.204966,-0.10215 -0.420966,-0.07166 -0.48,0.06776 C 73.8083,39.748922 73.508,39.811261 73.2,39.748038 Z m 5.761619,0.06693 C 78.231357,39.084691 81.042362,29.76 81.992768,29.76 c 0.135978,0 0.250435,-0.18 0.254349,-0.4 0.0039,-0.22 0.271309,-0.743588 0.594211,-1.16353 1.124774,-1.462793 1.088448,-0.05385 -0.05938,2.303231 -0.616096,1.265165 -1.36746,3.164299 -1.669693,4.220299 -0.302234,1.056 -0.665402,2.065827 -0.80704,2.244058 -0.141639,0.17823 -0.304253,0.8871 -0.36137,1.575264 -0.09721,1.171302 -0.5276,1.730256 -0.982224,1.275632 z M 224,37.188995 c 0,-0.24807 -1.93063,-1.502419 -2.24,-1.45535 -0.45301,0.06893 -3.35625,-0.967421 -4.34585,-1.551296 -0.81819,-0.482743 -1.03768,-0.766819 -0.78653,-1.017965 0.25114,-0.251146 0.53128,-0.234122 1.00384,0.061 1.69938,1.06128 3.32572,1.760163 4.36166,1.874323 1.75711,0.193632 4.03823,2.340291 2.48688,2.340291 -0.264,0 -0.48,-0.112954 -0.48,-0.251005 z m 11.2049,-1.311101 c -0.008,-0.688524 3.76332,-4.196582 4.81749,-4.481634 2.08169,-0.562899 3.01574,-0.199488 2.5718,1.000604 -0.26798,0.724429 -1.18668,1.028333 -1.51292,0.50047 -0.1107,-0.179113 -0.29127,-0.202288 -0.40127,-0.0515 -0.35714,0.489581 -4.31756,2.713091 -4.72205,2.65112 -0.11352,-0.01738 -0.32829,0.160678 -0.47727,0.395712 -0.22338,0.352393 -0.27174,0.349805 -0.27578,-0.01478 z M 226.00299,33.68 c -0.51255,-0.836 -1.10845,-2.225752 -1.32423,-3.088339 -0.21577,-0.862586 -0.60077,-1.971435 -0.85554,-2.464108 C 223.2436,27.006694 223.23656,26.56 223.79851,26.56 c 0.38002,0 1.4472,2.53727 2.28807,5.44 0.12746,0.44 0.34979,0.94872 0.49408,1.130486 0.47515,0.598608 0.92922,2.069514 0.63887,2.069514 -0.15655,0 -0.70399,-0.684 -1.21654,-1.52 z m 6.08817,0.48 c 0.59945,-3.867992 1.79797,-6.96 2.69784,-6.96 0.56009,0 0.51596,0.699227 -0.12457,1.974067 -0.29457,0.586263 -0.72431,1.444336 -0.95499,1.906827 -0.23068,0.462492 -0.57761,1.578492 -0.77095,2.479999 -0.38428,1.791862 -1.11191,2.306329 -0.84733,0.599107 z M 16.515336,33.017174 c -0.438472,-0.709462 -0.552139,-2.158712 -0.234779,-2.993432 0.17107,-0.449946 0.183948,-0.989928 0.02957,-1.239721 -0.152875,-0.247358 -0.148809,-0.592817 0.0092,-0.783228 0.350965,-0.422888 0.579188,-1.612115 0.847243,-4.414825 0.152878,-1.59846 0.356386,-2.253485 0.768683,-2.47414 1.016935,-0.544248 1.006099,-0.312322 -0.366666,7.848172 -0.705981,4.196755 -0.783191,4.49417 -1.053269,4.057174 z M 22.9256,32.80344 c -0.109573,-0.285542 -0.06394,-0.433661 0.10201,-0.331098 0.165154,0.102071 0.45657,-0.106451 0.647593,-0.463379 0.191023,-0.35693 0.276793,-0.648963 0.190601,-0.648963 -0.153091,0 0.666066,-0.937402 2.249947,-2.574725 0.433473,-0.448098 0.709967,-0.89289 0.614432,-0.988425 -0.329112,-0.329112 3.0388,-2.901876 3.54464,-2.707767 0.664692,0.255066 0.457258,1.658857 -0.228668,1.547488 -0.301596,-0.04897 -1.837381,1.314157 -3.718065,3.300061 -2.430185,2.566149 -3.252116,3.258677 -3.40249,2.866808 z M 19.52,31.236152 c 0,-0.429982 2.045993,-4.579232 3.437651,-6.971517 1.01614,-1.746764 1.996467,-2.768869 2.574345,-2.684054 0.889725,0.130584 0.741655,0.633275 -0.419502,1.42419 -0.617526,0.420624 -1.21442,1.140624 -1.326431,1.6 -0.112011,0.459376 -0.480875,1.192858 -0.819698,1.62996 -0.338822,0.437102 -1.099494,1.841102 -1.690381,3.12 C 20.286445,31.496459 19.52,32.317654 19.52,31.236152 Z"
     id="path4520"
     inkscape:connector-curvature="0"
     sodipodi:nodetypes="cccccsccsccccccccscssccsssccssssssscsscsccssccscccccscccccccsccccscsccscccssccccscccsscccccsscccccscsccccccscccscscccssssscscsccccssccccssccccccsccccccscscsccsccsccssscssccscccscccccccccccccscccccsccccscscscsssccccsccsccccccccssscscccssscsssccsscccsscssscccscccccccccccsssscssccscsccscsccscccscsscccssscssccscccsssscccscccscccscccccccccccccccssscccccccccscccsssccccsccscccsccccccccccccccsccccccscscccsscscccccscsscccccccccccccssccscccccccsccssscccccsccccscccccccccsccccccsccccccccccscccscssccccssccccccccccccscssccscsscsscsccccscccccccccscsccsccsccccssscccsccscccscccccccccccccccscccccccscsccsccssssscssccsscscccsccccccscscsccsssssccscsccsssscccscccsccssssscscscccsccscscccsscsscsscscscscccsccccccsccccccccccccccccccccccccccssssssscccscsccccccsccsccccccsccccccccccccscccccssccccccccccsccsscccccccccsscccscccccccsccsscsssscscsccccssscccscsssscscssssscss" />
</svg>
